<svg width="128" height="128" viewBox="0 0 128 128" fill="none" xmlns="http://www.w3.org/2000/svg">
<path fill-rule="evenodd" clip-rule="evenodd" d="M53.333 10.6666C44.4965 10.6666 37.333 17.8301 37.333 26.6666C28.4965 26.6666 21.333 33.8301 21.333 42.6666V101.333C21.333 110.17 28.4965 117.333 37.333 117.333H90.6663C99.5029 117.333 106.666 110.17 106.666 101.333V42.6666C106.666 33.8301 99.5029 26.6666 90.6663 26.6666C90.6663 17.8301 83.5029 10.6666 74.6663 10.6666H53.333ZM47.9997 26.6666C47.9997 23.7211 50.3875 21.3333 53.333 21.3333H74.6663C77.6119 21.3333 79.9997 23.7211 79.9997 26.6666C79.9997 29.6121 77.6119 32 74.6663 32H53.333C50.3875 32 47.9997 29.6121 47.9997 26.6666Z" fill="#0052D9" style="fill:#0052D9;fill:color(display-p3 0.0000 0.3216 0.8510);fill-opacity:1;"/>
</svg>
