<svg width="128" height="128" viewBox="0 0 128 128" fill="none" xmlns="http://www.w3.org/2000/svg">
<path d="M53.333 37.3334C73.9515 37.3334 90.6668 54.0479 90.667 74.6664C90.667 95.285 73.9516 112 53.333 112C50.1364 112 47.0335 111.598 44.0723 110.842L20.8232 107.936C18.1919 107.607 16.3629 105.154 16.7988 102.538L18.2217 94.0043C18.2958 93.5594 18.3049 93.1061 18.249 92.6586L17.1572 83.9281C16.4014 80.9668 16 77.8631 16 74.6664C16.0002 54.048 32.7146 37.3336 53.333 37.3334ZM32 69.3334C29.0546 69.3334 26.6672 71.7211 26.667 74.6664C26.667 77.6119 29.0545 80.0004 32 80.0004C34.9455 80.0004 37.333 77.6119 37.333 74.6664C37.3328 71.7211 34.9454 69.3334 32 69.3334ZM53.333 69.3334C50.3878 69.3335 48.0002 71.7212 48 74.6664C48 77.6118 50.3876 80.0002 53.333 80.0004C56.2785 80.0004 58.667 77.6119 58.667 74.6664C58.6668 71.7211 56.2784 69.3334 53.333 69.3334ZM74.667 69.3334C71.7216 69.3334 69.3332 71.7211 69.333 74.6664C69.333 77.6119 71.7215 80.0004 74.667 80.0004C77.6124 80.0002 80 77.6118 80 74.6664C79.9998 71.7212 77.6122 69.3335 74.667 69.3334Z" fill="#0052D9" style="fill:#0052D9;fill:color(display-p3 0.0000 0.3216 0.8510);fill-opacity:1;"/>
<path d="M85.333 16C100.061 16 112 27.9394 112 42.667C112 44.9502 111.713 47.1662 111.173 49.2812L110.394 55.5176C110.354 55.8373 110.36 56.1616 110.413 56.4795L111.429 62.5752C111.74 64.4437 110.434 66.1957 108.555 66.4307L98.1387 67.7324C95.2266 48.7606 80.5536 33.6662 61.7969 30.124C66.2848 21.7199 75.1401 16.0001 85.333 16Z" fill="#0052D9" style="fill:#0052D9;fill:color(display-p3 0.0000 0.3216 0.8510);fill-opacity:1;"/>
</svg>
