<svg width="128" height="128" viewBox="0 0 128 128" fill="none" xmlns="http://www.w3.org/2000/svg">
<path d="M32.0003 10.6666C20.2183 10.6666 10.667 20.2179 10.667 32V96C10.667 107.782 20.2183 117.333 32.0003 117.333H96.0003C107.782 117.333 117.334 107.782 117.334 96V64C117.334 61.0544 114.946 58.6666 112 58.6666C109.055 58.6666 106.667 61.0544 106.667 64V96C106.667 101.891 101.891 106.667 96.0003 106.667H32.0003C26.1093 106.667 21.3337 101.891 21.3337 96V32C21.3337 26.1089 26.1093 21.3333 32.0003 21.3333H46.3161C49.2616 21.3333 51.6495 18.9455 51.6495 16C51.6495 13.0544 49.2616 10.6666 46.3161 10.6666H32.0003Z" fill="#0052D9" style="fill:#0052D9;fill:color(display-p3 0.0000 0.3216 0.8510);fill-opacity:1;"/>
<path d="M36.2975 83.0351L37.6152 73.8118C38.1047 70.3847 39.6927 67.2088 42.1406 64.7608L81.0894 25.8121L99.5545 44.2772L60.6058 83.226C58.1578 85.6739 54.9819 87.2619 51.5548 87.7514L42.3315 89.0691C38.8117 89.5719 35.7947 86.5549 36.2975 83.0351Z" fill="#0052D9" style="fill:#0052D9;fill:color(display-p3 0.0000 0.3216 0.8510);fill-opacity:1;"/>
<path d="M107.041 36.6788L88.6878 18.3256C93.8144 14.2161 101.321 14.5381 106.075 19.2917C110.829 24.0452 111.151 31.5522 107.041 36.6788Z" fill="#0052D9" style="fill:#0052D9;fill:color(display-p3 0.0000 0.3216 0.8510);fill-opacity:1;"/>
</svg>
