<svg width="128" height="128" viewBox="0 0 128 128" fill="none" xmlns="http://www.w3.org/2000/svg">
<path fill-rule="evenodd" clip-rule="evenodd" d="M73.6301 14.6541C68.2581 9.45725 59.7326 9.45725 54.3606 14.6541C51.2887 17.6259 47.0172 19.0138 42.7852 18.4152C35.3845 17.3684 28.4872 22.3796 27.1958 29.7415C26.4574 33.9514 23.8175 37.5849 20.0418 39.5882C13.4393 43.0913 10.8047 51.1996 14.0872 57.9146C15.9643 61.7545 15.9643 66.2458 14.0872 70.0857C10.8047 76.8007 13.4393 84.9089 20.0418 88.4121C23.8175 90.4153 26.4574 94.0488 27.1958 98.2587C28.4872 105.621 35.3845 110.632 42.7852 109.585C47.0172 108.986 51.2887 110.374 54.3606 113.346C59.7326 118.543 68.2581 118.543 73.6301 113.346C76.702 110.374 80.9735 108.986 85.2055 109.585C92.6062 110.632 99.5035 105.621 100.795 98.2587C101.533 94.0488 104.173 90.4153 107.949 88.4121C114.551 84.9089 117.186 76.8007 113.903 70.0857C112.026 66.2458 112.026 61.7545 113.903 57.9146C117.186 51.1996 114.551 43.0913 107.949 39.5882C104.173 37.5849 101.533 33.9514 100.795 29.7415C99.5035 22.3796 92.6062 17.3684 85.2055 18.4152C80.9735 19.0138 76.702 17.6259 73.6301 14.6541ZM89.1559 51.7146C91.2073 49.6009 91.1568 46.2244 89.0431 44.173C86.9295 42.1215 83.553 42.172 81.5015 44.2857L54.2711 72.3424L46.4892 64.3243C44.4378 62.2107 41.0613 62.1602 38.9476 64.2116C36.8339 66.2631 36.7834 69.6396 38.8348 71.7533L50.4439 83.7146C51.4483 84.7494 52.8289 85.3335 54.271 85.3335C55.7132 85.3335 57.0938 84.7494 58.0982 83.7146L89.1559 51.7146Z" fill="#0052D9" style="fill:#0052D9;fill:color(display-p3 0.0000 0.3216 0.8510);fill-opacity:1;"/>
</svg>
