<svg width="64" height="64" viewBox="0 0 64 64" fill="none" xmlns="http://www.w3.org/2000/svg">
<path fill-rule="evenodd" clip-rule="evenodd" d="M50.6677 56C56.5587 56 61.3344 51.2244 61.3344 45.3333V21.3938C61.3353 21.353 61.3353 21.3122 61.3344 21.2712V18.6667C61.3344 12.7756 56.5587 8 50.6677 8H13.3344C7.44333 8 2.6677 12.7756 2.6677 18.6667V21.2712C2.66675 21.3122 2.66676 21.353 2.6677 21.3938V45.3333C2.6677 51.2244 7.44333 56 13.3344 56H50.6677ZM8.00104 45.3333C8.00104 48.2789 10.3888 50.6667 13.3344 50.6667H50.6677C53.6132 50.6667 56.001 48.2789 56.001 45.3333V25.2721L35.9625 33.2875C33.4195 34.3047 30.5826 34.3047 28.0395 33.2875L8.00104 25.2721V45.3333ZM33.9818 28.3356L56.001 19.5279V18.6667C56.001 15.7211 53.6132 13.3333 50.6677 13.3333H13.3344C10.3889 13.3333 8.00104 15.7211 8.00104 18.6667V19.5279L30.0203 28.3356C31.2918 28.8442 32.7103 28.8442 33.9818 28.3356Z" fill="#0052D9" style="fill:#0052D9;fill:color(display-p3 0.0000 0.3216 0.8510);fill-opacity:1;"/>
</svg>
