<svg width="64" height="64" viewBox="0 0 64 64" fill="none" xmlns="http://www.w3.org/2000/svg">
<path fill-rule="evenodd" clip-rule="evenodd" d="M32.0004 14.6666C25.373 14.6666 20.0004 20.0392 20.0004 26.6666C20.0004 33.2941 25.373 38.6666 32.0004 38.6666C38.6278 38.6666 44.0004 33.2941 44.0004 26.6666C44.0004 20.0392 38.6278 14.6666 32.0004 14.6666ZM25.3337 26.6666C25.3337 22.9847 28.3185 20 32.0004 20C35.6823 20 38.6671 22.9847 38.6671 26.6666C38.6671 30.3485 35.6823 33.3333 32.0004 33.3333C28.3185 33.3333 25.3337 30.3485 25.3337 26.6666Z" fill="#0052D9" style="fill:#0052D9;fill:color(display-p3 0.0000 0.3216 0.8510);fill-opacity:1;"/>
<path fill-rule="evenodd" clip-rule="evenodd" d="M20.8251 9.57862C27.5923 5.06712 36.4085 5.06712 43.1758 9.57862C52.3248 15.678 54.8934 27.9867 48.9473 37.2361L38.7298 53.13C35.5807 58.0286 28.4201 58.0286 25.271 53.13L15.0535 37.2361C9.10742 27.9867 11.676 15.678 20.8251 9.57862ZM23.7835 14.0162C28.7592 10.699 35.2416 10.699 40.2174 14.0162C46.9444 18.5009 48.833 27.5512 44.4611 34.3521L34.2436 50.246C33.1939 51.8788 30.807 51.8788 29.7573 50.246L19.5398 34.3521C15.1678 27.5512 17.0564 18.5009 23.7835 14.0162Z" fill="#0052D9" style="fill:#0052D9;fill:color(display-p3 0.0000 0.3216 0.8510);fill-opacity:1;"/>
</svg>
