<svg width="60" height="60" viewBox="0 0 60 60" fill="none" xmlns="http://www.w3.org/2000/svg">
<path fill-rule="evenodd" clip-rule="evenodd" d="M52.9904 47.5C55 44.0192 55 39.3462 55 30C55 20.6538 55 15.9808 52.9904 12.5C51.6739 10.2197 49.7803 8.32615 47.5 7.00962C44.0192 5 39.3462 5 30 5C20.6538 5 15.9808 5 12.5 7.00962C10.2197 8.32615 8.32615 10.2197 7.00962 12.5C5 15.9808 5 20.6538 5 30C5 39.3462 5 44.0192 7.00962 47.5C8.32615 49.7803 10.2197 51.6739 12.5 52.9904C15.9808 55 20.6538 55 30 55C39.3462 55 44.0192 55 47.5 52.9904C49.7803 51.6739 51.6739 49.7803 52.9904 47.5ZM41.2205 29.2244C41.8733 31.183 41.5527 33.9823 39.3307 36.7598C38.1116 38.2838 36.6917 39.4676 35.0712 40.3113C34.5752 40.5695 34.3517 41.1762 34.6071 41.6735C34.8438 42.1344 35.4046 42.3265 35.8644 42.0878C38.7882 40.5696 41.0067 38.6362 42.5197 36.2874C44.1732 33.7205 45 30.815 45 27.5709C45 22.5747 42.6784 18.122 37.6299 18.122C35.4116 18.122 33.4234 19.2588 32.2913 21.1457C30.9455 23.3887 31.127 26.8524 33.2362 28.8228C35.3242 30.7734 38.7532 31.1837 41.2205 29.2244ZM24.7795 29.2244C25.4324 31.183 25.1118 33.9823 22.8898 36.7598C21.6706 38.2838 20.2508 39.4676 18.6302 40.3113C18.1343 40.5695 17.9108 41.1762 18.1662 41.6735C18.4028 42.1344 18.9637 42.3265 19.4235 42.0878C22.3473 40.5696 24.5657 38.6362 26.0788 36.2874C27.7323 33.7205 28.5591 30.8149 28.5591 27.5709C28.5591 22.5747 26.2375 18.122 21.189 18.122C17.771 18.122 15 20.7003 15 24.311C15 28.2377 17.7921 30.5 21.189 30.5C22.4803 30.5 23.6771 30.0748 24.7795 29.2244Z" fill="black" fill-opacity="0.9" style="fill:black;fill-opacity:0.9;"/>
</svg>
