<svg width="36" height="36" viewBox="0 0 36 36" fill="none" xmlns="http://www.w3.org/2000/svg">
<g clip-path="url(#clip0_56_12936)">
<path d="M18.0002 0.32517C19.1996 0.32517 20.3981 0.445994 21.5626 0.684225C22.6973 0.91644 23.8133 1.26281 24.8799 1.71391C25.9272 2.15687 26.9372 2.70505 27.8821 3.34348C28.8182 3.97589 29.6982 4.70197 30.4981 5.50187C31.298 6.30178 32.0243 7.18202 32.6565 8.11787C33.2948 9.06267 33.8431 10.0728 34.2861 11.1201C34.7372 12.1867 35.0837 13.3027 35.3158 14.4374C35.554 15.6019 35.6749 16.8004 35.6749 17.9999C35.6749 19.1993 35.554 20.3978 35.3158 21.5623C35.0836 22.697 34.7372 23.813 34.2861 24.8796C33.8431 25.9269 33.295 26.9369 32.6565 27.8818C32.0241 28.8179 31.298 29.6979 30.4981 30.4978C29.6982 31.2977 28.818 32.024 27.8821 32.6562C26.9374 33.2945 25.9272 33.8428 24.8799 34.2858C23.8133 34.7369 22.6973 35.0834 21.5626 35.3155C20.3981 35.5537 19.1996 35.6745 18.0002 35.6745C16.8007 35.6745 15.6022 35.5537 14.4377 35.3155C13.303 35.0833 12.187 34.7369 11.1204 34.2858C10.0731 33.8428 9.06314 33.2947 8.11818 32.6562C7.18216 32.0238 6.30209 31.2977 5.50218 30.4978C4.70227 29.6979 3.97603 28.8177 3.34378 27.8818C2.70552 26.937 2.15718 25.9269 1.71421 24.8796C1.26312 23.813 0.916583 22.697 0.68453 21.5623C0.446299 20.3978 0.325475 19.1993 0.325475 17.9999C0.325475 16.8004 0.446299 15.6019 0.68453 14.4374C0.916746 13.3027 1.26312 12.1867 1.71421 11.1201C2.15718 10.0728 2.70535 9.06283 3.34378 8.11787C3.97619 7.18186 4.70227 6.30178 5.50218 5.50187C6.30209 4.70197 7.18232 3.97573 8.11818 3.34348C9.06297 2.70521 10.0731 2.15687 11.1204 1.71391C12.187 1.26281 13.303 0.916278 14.4377 0.684225C15.6022 0.445994 16.8007 0.32517 18.0002 0.32517ZM18.0002 -6.10352e-05C8.05915 -6.10352e-05 0.000244141 8.05884 0.000244141 17.9999C0.000244141 27.9409 8.05915 35.9998 18.0002 35.9998C27.9412 35.9998 36.0001 27.9409 36.0001 17.9999C36.0001 8.05884 27.9413 -6.10352e-05 18.0002 -6.10352e-05Z" fill="white" style="fill:white;fill-opacity:1;"/>
<path d="M18 3.84766C25.8163 3.84767 32.1523 10.1837 32.1523 18C32.1523 25.8163 25.8163 32.1523 18 32.1523C10.1837 32.1523 3.8477 25.8163 3.84766 18C3.84766 10.1836 10.1836 3.84766 18 3.84766ZM17.958 30.2803C17.6524 30.2789 17.3693 30.5615 17.3652 30.873C17.3606 31.1938 17.656 31.4978 17.9688 31.4941C18.2776 31.4902 18.5405 31.2075 18.5381 30.8828C18.5354 30.5653 18.2623 30.2823 17.958 30.2803ZM19.1914 29.2568C18.8906 29.2635 18.6335 29.5314 18.6279 29.8428C18.6233 30.119 18.8376 30.3798 19.0957 30.4395L19.208 30.4521C19.5057 30.4508 19.7983 30.1461 19.793 29.8418C19.7876 29.5231 19.5074 29.2505 19.1914 29.2568ZM16.7383 29.252C16.4109 29.2446 16.1409 29.506 16.1387 29.832C16.1367 30.1456 16.4204 30.4446 16.7207 30.4453C17.0255 30.4464 17.3096 30.1504 17.3057 29.8369C17.3023 29.5294 17.0385 29.2586 16.7383 29.252ZM17.9609 28.0742C17.65 28.0716 17.3535 28.3779 17.3535 28.7021C17.3537 29.0123 17.6348 29.3159 17.9297 29.3252C18.249 29.335 18.5433 29.0434 18.5469 28.7148C18.5502 28.3768 18.2764 28.0771 17.9609 28.0742ZM9.18945 12.1816C8.98319 12.0499 8.73722 12.0908 8.54297 12.2842C8.23544 12.5903 8.18228 13.0987 8.4082 13.502C8.4424 13.5629 8.46115 13.6483 8.45117 13.7168C8.40461 14.0343 8.34787 14.3508 8.28809 14.666C8.27574 14.731 8.24174 14.7957 8.2041 14.8516C7.95146 15.226 7.69475 15.5981 7.43945 15.9707C7.43004 15.9844 7.41824 15.9967 7.38281 16.0391C7.35623 15.8609 7.33301 15.7127 7.31152 15.5645C7.30733 15.5358 7.30973 15.506 7.30469 15.4775C7.28498 15.3683 7.31244 15.2907 7.40625 15.2139C7.67397 14.9947 7.71194 14.6142 7.50781 14.3389C7.4017 14.1957 7.25925 14.125 7.08008 14.1475C6.89764 14.1704 6.7721 14.2737 6.70312 14.4424C6.59531 14.7061 6.67547 15.0419 6.88184 15.2529C6.92839 15.3005 6.9657 15.3729 6.97559 15.4385C7.02528 15.7704 7.06817 16.1037 7.10449 16.4375C7.11357 16.5212 7.108 16.6158 7.07812 16.6934C6.85098 17.2845 6.67901 17.8904 6.56738 18.5137C6.56135 18.5476 6.54894 18.5805 6.53125 18.6406C6.49952 18.5894 6.47371 18.5626 6.46484 18.5312C6.39753 18.2931 6.33427 18.0538 6.26758 17.8154C6.24588 17.7379 6.29672 17.7043 6.34473 17.6631C6.68881 17.3671 6.70068 16.8482 6.36816 16.54C6.21612 16.3991 6.03704 16.3439 5.83301 16.4072C5.60197 16.4791 5.48379 16.6548 5.4375 16.8779C5.36847 17.2118 5.53711 17.6123 5.8418 17.748C5.88479 17.7671 5.92141 17.8299 5.93652 17.8799C6.01009 18.1243 6.06152 18.3766 6.14746 18.6162C6.21835 18.814 6.32967 18.9972 6.41699 19.1895C6.4433 19.2472 6.46547 19.3138 6.46484 19.376C6.45844 20.0232 6.48736 20.6677 6.59863 21.3066C6.60284 21.3308 6.59809 21.357 6.59766 21.4062C6.55023 21.3725 6.51331 21.3527 6.48535 21.3242C6.26608 21.1005 6.09556 20.8432 5.96289 20.5596C5.92444 20.4771 5.93163 20.4181 5.99219 20.3438C6.30083 19.9651 6.1352 19.3651 5.67871 19.1875C5.30751 19.0433 4.93388 19.3013 4.92285 19.709C4.91292 20.0827 5.14937 20.4059 5.50781 20.5166C5.55005 20.5297 5.59862 20.5681 5.61719 20.6074C5.86324 21.128 6.20054 21.5734 6.66406 21.9209C6.71803 21.9614 6.75842 22.0312 6.78418 22.0957C6.96525 22.5494 7.14149 23.0056 7.31836 23.4609C7.32796 23.4858 7.33329 23.5128 7.35059 23.5713C7.28749 23.5323 7.24987 23.5131 7.21777 23.4873C7.0418 23.3455 6.86117 23.2086 6.69434 23.0566C6.61322 22.9827 6.54502 22.8867 6.49316 22.7891C6.35014 22.5201 6.16904 22.2949 5.87598 22.1816C5.71419 22.1192 5.54157 22.1004 5.41211 22.2266C5.27869 22.3567 5.31349 22.5324 5.37598 22.6904C5.50067 23.0051 5.75813 23.1682 6.07422 23.1973C6.34577 23.2222 6.54014 23.3568 6.74316 23.5088C7.01415 23.7116 7.2983 23.8971 7.57324 24.0947C7.64867 24.149 7.72019 24.2135 7.78027 24.2842C7.99268 24.534 8.19927 24.789 8.4082 25.042L8.49219 25.1426C8.44381 25.1429 8.41684 25.1468 8.3916 25.1426C8.28376 25.1245 8.17605 25.1039 8.06836 25.085C7.91823 25.0586 7.79422 25.0001 7.68457 24.8799C7.46198 24.6361 7.03813 24.6287 6.78613 24.8428C6.49857 25.0872 6.56701 25.5333 6.91602 25.6914C7.20597 25.8225 7.58094 25.7251 7.76758 25.4609C7.81991 25.3869 7.87063 25.3673 7.95801 25.3838C8.2589 25.4406 8.5617 25.4877 8.86328 25.541C9.06471 25.5767 9.18385 25.7417 9.34668 25.8379L9.33887 25.8643C9.28583 25.8672 9.23272 25.8724 9.17969 25.873C8.9084 25.8762 8.63905 25.8946 8.38477 26.001C8.2985 26.037 8.18641 26.0706 8.19727 26.1855C8.2091 26.3091 8.33397 26.3304 8.42578 26.3281C8.67616 26.3217 8.92699 26.2951 9.17676 26.2734C9.39728 26.2542 9.61718 26.2282 9.83789 26.2119C9.8816 26.2086 9.93132 26.2301 9.97266 26.251C10.2642 26.3977 10.5543 26.5473 10.8447 26.6963L10.9277 26.7383C10.94 26.7446 10.9503 26.755 10.9824 26.7803V26.7812C10.8349 26.8324 10.7071 26.8728 10.582 26.9199C10.0535 27.1189 9.51447 27.2462 8.94336 27.166C8.88804 27.1584 8.82766 27.1872 8.76953 27.1992C8.79517 27.2559 8.80869 27.3237 8.84863 27.3672C9.35371 27.9157 9.98259 28.2393 10.7109 28.375C11.7493 28.5682 12.7532 28.4257 13.7041 27.9912C14.1701 27.7781 14.6165 27.7613 15.0947 27.8867C15.7992 28.0102 16.1484 27.9902 16.1484 27.9902C15.7461 27.4807 15.2108 27.4817 14.6094 27.4141C14.4525 27.3964 14.3312 27.3332 14.2139 27.2295C13.6915 26.7674 13.0692 26.5713 12.3799 26.5771C12.1689 26.579 11.9581 26.6024 11.7471 26.6094C11.6797 26.6116 11.6048 26.6068 11.5439 26.5811C11.289 26.4728 11.0361 26.3592 10.7871 26.2383C10.7259 26.2085 10.6617 26.152 10.6328 26.0918C10.5198 25.8559 10.4129 25.6159 10.3184 25.3721C10.2583 25.2171 10.268 25.2097 10.4023 25.1143L10.4102 25.1094C10.8084 24.8264 10.7698 24.217 10.3389 23.9863C9.9704 23.7892 9.52454 24.0551 9.49512 24.4941C9.47538 24.7894 9.59952 25.0146 9.84766 25.1768C9.89426 25.2073 9.9382 25.2612 9.95605 25.3135C10.016 25.4879 10.0639 25.6667 10.1162 25.8438L10.0889 25.8662C9.99819 25.8115 9.90324 25.7626 9.81738 25.7012C9.63065 25.5675 9.44216 25.4348 9.26758 25.2861C9.19485 25.2243 9.13216 25.1288 9.10547 25.0371C8.99971 24.6729 8.91278 24.3032 8.81152 23.9375C8.77845 23.8179 8.80224 23.7489 8.91211 23.6787C9.15078 23.5264 9.2257 23.2908 9.17285 23.0205C9.12127 22.7569 8.96931 22.5684 8.70215 22.4971C8.35989 22.4058 8.02512 22.6689 8.00488 23.0508C7.98929 23.3454 8.09782 23.5852 8.36328 23.7393C8.3921 23.756 8.42746 23.7834 8.43555 23.8125C8.51315 24.0977 8.58592 24.3846 8.65918 24.6709C8.66147 24.68 8.65462 24.692 8.64746 24.7207C8.60519 24.6809 8.56692 24.6502 8.53516 24.6143C7.89022 23.8836 7.46921 23.0305 7.19336 22.1045C7.14916 21.956 7.17705 21.7794 7.19824 21.6191C7.24446 21.2701 7.34581 20.9352 7.50293 20.6182C7.56101 20.5009 7.63341 20.4269 7.77441 20.3965C8.22308 20.3001 8.4719 19.9062 8.35645 19.5029C8.29415 19.2858 8.16144 19.1329 7.93164 19.0957C7.67982 19.0552 7.491 19.1771 7.35059 19.3711C7.17607 19.6124 7.15539 19.8744 7.2793 20.1484C7.29671 20.187 7.30455 20.2436 7.29004 20.2812C7.19236 20.5328 7.08734 20.7818 6.98438 21.0312C6.98049 21.0406 6.97129 21.0477 6.95703 21.0654C6.94788 21.0458 6.93737 21.0328 6.93555 21.0186C6.81985 20.1225 6.81013 19.2294 6.99316 18.3389C7.0278 18.1705 7.10274 18.064 7.26465 18.0059C7.37411 17.9664 7.46927 17.9551 7.57715 18.0156C7.81023 18.1463 8.04258 18.1165 8.25977 17.9736C8.40399 17.8786 8.46241 17.7167 8.42383 17.5645C8.3849 17.4108 8.25876 17.3029 8.08301 17.2852C7.84489 17.2613 7.63916 17.3377 7.49219 17.5264C7.40476 17.6388 7.29365 17.6763 7.13574 17.7051C7.2286 17.4888 7.21467 17.237 7.42188 17.1094C7.61196 16.9923 7.82723 16.9146 8.03418 16.8262C8.11776 16.7905 8.19149 16.8179 8.26367 16.8799C8.51406 17.0948 8.95977 17.0309 9.14941 16.7588C9.29575 16.5488 9.19652 16.2389 8.95117 16.1377C8.66077 16.018 8.33266 16.1177 8.16602 16.3857C8.11953 16.4606 8.06228 16.5015 7.98047 16.5234C7.83781 16.5617 7.69645 16.606 7.5332 16.6543C7.55039 16.6054 7.55723 16.5704 7.57422 16.542C7.78516 16.1886 7.99554 15.8349 8.21094 15.4844C8.30224 15.3358 8.44349 15.2362 8.60449 15.1846C8.90271 15.0888 9.20662 15.0102 9.50977 14.9307C9.54823 14.9205 9.61014 14.9318 9.6377 14.958C9.88638 15.1954 10.3471 15.1805 10.6416 14.9932C10.7265 14.9392 10.8104 14.8736 10.873 14.7959C11.1188 14.491 10.9889 14.1084 10.6113 14.0068C10.222 13.9022 9.71899 14.1355 9.55371 14.5039C9.52132 14.5762 9.47762 14.6076 9.4043 14.627C9.20407 14.68 9.00629 14.7421 8.80762 14.8008L8.79004 14.7666C8.79796 14.7498 8.80221 14.7286 8.81445 14.7158C9.27635 14.2349 9.78063 13.806 10.3574 13.4668C10.4308 13.4237 10.4919 13.4164 10.5713 13.4551C11.134 13.7294 11.8089 13.2885 11.9004 12.8145C11.9606 12.5013 11.7808 12.2444 11.4629 12.2031C11.0138 12.1449 10.4739 12.501 10.3555 12.9404C10.3315 13.0295 10.2869 13.0835 10.209 13.1289C9.69586 13.4276 9.23173 13.7915 8.80371 14.2021C8.7763 14.2284 8.74437 14.2513 8.71484 14.2754L8.67969 14.2588C8.71974 14.0773 8.75661 13.8947 8.80371 13.7148C8.81117 13.6866 8.86439 13.6662 8.89941 13.6494C9.29831 13.4572 9.5347 12.9954 9.44238 12.5781C9.40667 12.417 9.33351 12.2739 9.18945 12.1816ZM27.3896 12.2842C27.1953 12.0907 26.9485 12.0498 26.7422 12.1816C26.5981 12.2739 26.525 12.417 26.4893 12.5781C26.3969 12.9955 26.6341 13.4573 27.0332 13.6494C27.0682 13.6662 27.1204 13.6866 27.1279 13.7148C27.175 13.8947 27.2119 14.0773 27.252 14.2588L27.2168 14.2754C27.1873 14.2513 27.1563 14.2284 27.1289 14.2021C26.7009 13.7915 26.2368 13.4276 25.7236 13.1289C25.6456 13.0835 25.6011 13.0295 25.5771 12.9404C25.4588 12.5009 24.9179 12.1448 24.4688 12.2031C24.151 12.2445 23.971 12.5014 24.0312 12.8145C24.1227 13.2885 24.7977 13.7293 25.3604 13.4551C25.4397 13.4163 25.5008 13.4237 25.5742 13.4668C26.1511 13.806 26.6553 14.2349 27.1172 14.7158C27.1295 14.7286 27.1336 14.7497 27.1416 14.7666L27.124 14.8008C26.9254 14.7421 26.7275 14.68 26.5273 14.627C26.4542 14.6076 26.4103 14.5761 26.3779 14.5039C26.2126 14.1356 25.7096 13.9021 25.3203 14.0068C24.943 14.1085 24.8131 14.4911 25.0586 14.7959C25.1213 14.8736 25.2051 14.9392 25.29 14.9932C25.5845 15.1806 26.0452 15.1953 26.2939 14.958C26.3214 14.9318 26.3834 14.9206 26.4219 14.9307C26.7249 15.0102 27.029 15.0888 27.3271 15.1846C27.4882 15.2362 27.6304 15.3358 27.7217 15.4844C27.9371 15.8349 28.1475 16.1887 28.3584 16.542C28.3753 16.5704 28.3813 16.6055 28.3984 16.6543C28.2351 16.606 28.0939 16.5617 27.9512 16.5234C27.8694 16.5015 27.8121 16.4606 27.7656 16.3857C27.599 16.1178 27.2708 16.0181 26.9805 16.1377C26.7353 16.239 26.6369 16.5489 26.7832 16.7588C26.9729 17.0306 27.4177 17.0946 27.668 16.8799C27.7401 16.8179 27.814 16.7906 27.8975 16.8262C28.1045 16.9147 28.3206 16.9923 28.5107 17.1094C28.7176 17.2371 28.7031 17.489 28.7959 17.7051C28.638 17.6763 28.5269 17.6388 28.4395 17.5264C28.2925 17.3378 28.0867 17.2612 27.8486 17.2852C27.673 17.303 27.5467 17.4108 27.5078 17.5645C27.4692 17.7168 27.5284 17.8786 27.6729 17.9736C27.8901 18.1165 28.1223 18.1465 28.3555 18.0156C28.4633 17.9552 28.5585 17.9664 28.668 18.0059C28.8296 18.0641 28.9049 18.1706 28.9395 18.3389C29.1225 19.2294 29.1118 20.1225 28.9961 21.0186C28.9943 21.0328 28.9838 21.0458 28.9746 21.0654C28.9604 21.0477 28.9511 21.0406 28.9473 21.0312C28.8443 20.7818 28.7402 20.5327 28.6426 20.2812C28.628 20.2436 28.6359 20.187 28.6533 20.1484C28.7771 19.8745 28.7555 19.6123 28.5811 19.3711C28.4406 19.1772 28.2519 19.055 28 19.0957C27.7702 19.1329 27.6375 19.2858 27.5752 19.5029C27.4597 19.9062 27.7086 20.3001 28.1572 20.3965C28.2984 20.4269 28.3706 20.5008 28.4287 20.6182C28.5859 20.9353 28.6872 21.2701 28.7334 21.6191C28.7546 21.7793 28.7834 21.956 28.7393 22.1045C28.4634 23.0305 28.0414 23.8836 27.3965 24.6143C27.3647 24.6502 27.3264 24.6809 27.2842 24.7207C27.277 24.692 27.2712 24.68 27.2734 24.6709C27.3467 24.3846 27.4195 24.0976 27.4971 23.8125C27.5053 23.7834 27.5396 23.7559 27.5684 23.7393C27.834 23.5852 27.9424 23.3455 27.9268 23.0508C27.9065 22.6691 27.5726 22.4061 27.2305 22.4971C26.9632 22.5683 26.8114 22.7568 26.7598 23.0205C26.7069 23.2908 26.7809 23.5264 27.0195 23.6787C27.1295 23.7489 27.1532 23.8179 27.1201 23.9375C27.0189 24.3032 26.9319 24.6729 26.8262 25.0371C26.7995 25.1286 26.7376 25.2243 26.665 25.2861C26.4904 25.4348 26.3011 25.5674 26.1143 25.7012C26.0286 25.7625 25.9342 25.8117 25.8438 25.8662L25.8154 25.8438C25.8678 25.6667 25.9156 25.4879 25.9756 25.3135C25.9934 25.2612 26.0374 25.2073 26.084 25.1768C26.3322 25.0146 26.4572 24.7895 26.4375 24.4941C26.4081 24.0551 25.9612 23.7892 25.5928 23.9863C25.1619 24.2171 25.1241 24.8265 25.5225 25.1094L25.5293 25.1143C25.6637 25.2097 25.6734 25.217 25.6133 25.3721C25.5187 25.6159 25.4119 25.8558 25.2988 26.0918C25.27 26.152 25.2067 26.2085 25.1455 26.2383C24.8963 26.3593 24.6428 26.4728 24.3877 26.5811C24.3269 26.6068 24.2529 26.6116 24.1855 26.6094C23.9742 26.6024 23.763 26.579 23.5518 26.5771C22.8625 26.5713 22.2411 26.7675 21.7188 27.2295C21.6014 27.3334 21.4793 27.3964 21.3223 27.4141C20.721 27.4816 20.1864 27.4808 19.7842 27.9902C19.7965 27.9909 20.1451 28.0079 20.8369 27.8867C21.3151 27.7613 21.7615 27.7782 22.2275 27.9912C23.1785 28.4258 24.1823 28.5682 25.2207 28.375C25.9492 28.2393 26.5788 27.9158 27.084 27.3672C27.1237 27.3236 27.1374 27.2558 27.1631 27.1992C27.1047 27.1872 27.0438 27.1583 26.9883 27.166C26.4171 27.2462 25.8783 27.119 25.3496 26.9199C25.2246 26.8728 25.0968 26.8324 24.9492 26.7812L24.9502 26.7803C24.9818 26.7553 24.9917 26.7445 25.0039 26.7383L25.0869 26.6963C25.3775 26.5472 25.6683 26.3978 25.96 26.251C26.0012 26.2302 26.0502 26.2087 26.0938 26.2119C26.3146 26.2282 26.5352 26.2542 26.7559 26.2734C27.0055 26.2951 27.2556 26.3217 27.5059 26.3281C27.5977 26.3305 27.7225 26.3092 27.7344 26.1855C27.7452 26.0705 27.6332 26.037 27.5469 26.001C27.2926 25.8946 27.0232 25.8762 26.752 25.873C26.699 25.8723 26.6457 25.8672 26.5928 25.8643L26.585 25.8379C26.7479 25.7417 26.8668 25.5767 27.0684 25.541C27.3699 25.4877 27.6727 25.4406 27.9736 25.3838C28.061 25.3674 28.1118 25.387 28.1641 25.4609C28.3507 25.7251 28.7257 25.8225 29.0156 25.6914C29.3648 25.5334 29.4331 25.0873 29.1455 24.8428C28.8934 24.6288 28.4696 24.636 28.2471 24.8799C28.1375 25.0001 28.0142 25.0585 27.8643 25.085C27.7566 25.1039 27.6489 25.1245 27.541 25.1426C27.5157 25.1469 27.4888 25.1429 27.4404 25.1426L27.5234 25.042C27.7323 24.789 27.939 24.534 28.1514 24.2842C28.2114 24.2135 28.283 24.149 28.3584 24.0947C28.6333 23.8971 28.9175 23.7116 29.1885 23.5088C29.3915 23.3569 29.586 23.2222 29.8574 23.1973C30.1736 23.1682 30.432 23.0053 30.5566 22.6904C30.6191 22.5324 30.653 22.3567 30.5195 22.2266C30.3901 22.1006 30.2174 22.1193 30.0557 22.1816C29.7627 22.295 29.5815 22.5202 29.4385 22.7891C29.3866 22.8866 29.3193 22.9827 29.2383 23.0566C29.0713 23.2088 28.89 23.3453 28.7139 23.4873C28.6818 23.5131 28.6442 23.5323 28.5811 23.5713C28.5984 23.5126 28.6046 23.4859 28.6143 23.4609C28.7911 23.0056 28.9664 22.5494 29.1475 22.0957C29.1732 22.0313 29.2137 21.9614 29.2676 21.9209C29.7312 21.5733 30.0694 21.1281 30.3154 20.6074C30.334 20.5682 30.3817 20.5298 30.4238 20.5166C30.7823 20.4059 31.0197 20.0827 31.0098 19.709C30.9987 19.3012 30.6242 19.0431 30.2529 19.1875C29.7964 19.3651 29.6308 19.9651 29.9395 20.3438C30.0001 20.4182 30.0073 20.477 29.9688 20.5596C29.8361 20.8432 29.6656 21.1005 29.4463 21.3242C29.4183 21.3527 29.3813 21.3726 29.334 21.4062C29.3336 21.357 29.3298 21.3308 29.334 21.3066C29.4452 20.6677 29.4732 20.0232 29.4668 19.376C29.4662 19.3138 29.4893 19.2472 29.5156 19.1895C29.6029 18.9973 29.7133 18.8139 29.7842 18.6162C29.8701 18.3765 29.9215 18.1243 29.9951 17.8799C30.0102 17.8299 30.0468 17.7671 30.0898 17.748C30.3947 17.6124 30.5632 17.2119 30.4941 16.8779C30.4479 16.6549 30.3306 16.4791 30.0996 16.4072C29.8953 16.3436 29.7157 16.3989 29.5635 16.54C29.231 16.8482 29.243 17.367 29.5869 17.6631C29.6349 17.7043 29.6858 17.7379 29.6641 17.8154C29.5974 18.0537 29.5341 18.2931 29.4668 18.5312C29.4579 18.5626 29.4321 18.5894 29.4004 18.6406C29.3827 18.5806 29.3703 18.5476 29.3643 18.5137C29.2526 17.8904 29.0807 17.2845 28.8535 16.6934C28.8236 16.6158 28.8181 16.5212 28.8271 16.4375C28.8635 16.1037 28.9073 15.7705 28.957 15.4385C28.9669 15.3729 29.0033 15.3005 29.0498 15.2529C29.2562 15.0419 29.3364 14.7061 29.2285 14.4424C29.1595 14.2737 29.0341 14.1703 28.8516 14.1475C28.6724 14.125 28.5299 14.1957 28.4238 14.3389C28.2198 14.6142 28.2577 14.9947 28.5254 15.2139C28.6193 15.2907 28.6476 15.3683 28.6279 15.4775C28.6229 15.506 28.6243 15.5357 28.6201 15.5645C28.5986 15.7127 28.5764 15.861 28.5498 16.0391C28.5142 15.9964 28.5016 15.9845 28.4922 15.9707C28.2369 15.5981 27.9811 15.2259 27.7285 14.8516C27.6908 14.7957 27.6559 14.7311 27.6436 14.666C27.5838 14.3508 27.528 14.0343 27.4814 13.7168C27.4715 13.6483 27.4892 13.5629 27.5234 13.502C27.7494 13.0988 27.697 12.5904 27.3896 12.2842ZM18 11.6836C13.7453 11.6836 10.2959 15.1329 10.2959 19.3877C10.2961 23.6423 13.7453 27.0908 18 27.0908C22.2547 27.0908 25.7039 23.6423 25.7041 19.3877C25.7041 15.1329 22.2548 11.6836 18 11.6836ZM13.8809 14.876C13.953 14.8544 13.9599 14.8627 13.9873 14.9473C13.9725 14.9596 13.9551 14.9717 13.9404 14.9863C13.8856 15.0414 13.8912 15.0652 13.9639 15.1006C13.9831 15.1098 13.9972 15.1295 14.0166 15.1475C14.0785 15.1132 14.1123 15.0151 14.2168 15.0488C14.1877 15.0798 14.164 15.1163 14.1309 15.1377C14.0607 15.183 14.0325 15.2556 14 15.3242C13.9883 15.3489 14.0021 15.3864 14.0049 15.4316C13.9433 15.4678 13.9058 15.5569 13.8037 15.5957C13.8105 15.5505 13.8157 15.5191 13.8203 15.4883C13.7498 15.4668 13.7332 15.4746 13.7129 15.5371C13.6888 15.611 13.6977 15.6287 13.7715 15.6572C13.7667 15.6681 13.7617 15.6791 13.7568 15.6904C13.7928 15.7117 13.8293 15.7335 13.877 15.7617C13.892 15.7392 13.9069 15.7159 13.918 15.6992C13.9757 15.6962 14.007 15.7182 14.0176 15.7744C14.065 15.7376 14.1068 15.7052 14.1533 15.6689C14.1037 15.6291 14.061 15.6544 14.0127 15.6631C14.0071 15.6438 14.0017 15.6252 13.9932 15.5957C14.0442 15.593 14.0883 15.586 14.1309 15.5898C14.2032 15.5961 14.2371 15.5538 14.208 15.4844C14.203 15.4723 14.1887 15.464 14.167 15.4414C14.1856 15.4306 14.1998 15.4238 14.2119 15.415C14.2643 15.3767 14.3169 15.3375 14.3838 15.3066C14.3616 15.3613 14.3413 15.4169 14.3154 15.4697C14.2988 15.5036 14.2808 15.5341 14.3066 15.5674C14.2894 15.6023 14.2293 15.594 14.2373 15.6475C14.2655 15.6611 14.3043 15.6133 14.3262 15.6572C14.347 15.6997 14.3024 15.7147 14.2832 15.7383C14.2539 15.7744 14.232 15.8118 14.2363 15.876C14.3909 15.8012 14.4535 15.6542 14.5703 15.5381H14.4385C14.4977 15.4196 14.5125 15.2923 14.624 15.209C14.726 15.1331 14.7269 15.1223 14.7988 15.1162C14.771 15.1963 14.6835 15.2519 14.7041 15.3701C14.724 15.3371 14.7362 15.3217 14.7432 15.3047C14.7707 15.2367 14.8196 15.189 14.8809 15.1514C14.9087 15.1342 14.9311 15.1331 14.9512 15.1709C14.899 15.2173 14.8353 15.2598 14.8408 15.3613C14.9154 15.2925 14.9465 15.1879 15.0615 15.1885C15.0647 15.1977 15.0715 15.2167 15.0801 15.2412C15.05 15.2439 15.0266 15.2455 14.9971 15.248C14.9874 15.2698 14.9768 15.2939 14.9668 15.3164C14.9744 15.3228 14.9796 15.3292 14.9814 15.3291C15.012 15.3133 15.0374 15.3103 15.0596 15.3447C15.0792 15.3752 15.1048 15.4021 15.1309 15.4346C15.1099 15.4646 15.0883 15.4964 15.0586 15.5391C15.0987 15.552 15.131 15.5626 15.167 15.5742C15.1794 15.6117 15.1929 15.6515 15.2051 15.6885C15.1993 15.6975 15.1969 15.7043 15.1924 15.707C15.087 15.7676 15.0691 15.8545 15.1406 15.9551C15.1569 15.9779 15.1667 15.9787 15.2305 15.96C15.2631 15.9896 15.2676 16.0204 15.2344 16.0527C15.2278 16.059 15.221 16.0657 15.2148 16.0723C15.1716 16.1183 15.1278 16.164 15.082 16.2129C15.048 16.1548 15.0167 16.1006 14.9727 16.0254C14.9566 16.07 14.9407 16.0932 14.9414 16.1162C14.9429 16.1678 14.9404 16.2255 14.9619 16.2695C14.9928 16.3331 14.9714 16.3784 14.9395 16.4277C14.8736 16.4167 14.9023 16.3144 14.8262 16.3105C14.7875 16.3599 14.8542 16.3826 14.8555 16.4219C14.8565 16.4637 14.8621 16.5059 14.8662 16.5508C14.8071 16.553 14.7984 16.5019 14.7725 16.4775C14.7433 16.4805 14.712 16.4922 14.6895 16.4834C14.6606 16.472 14.6366 16.4489 14.6348 16.4072C14.6329 16.3644 14.6157 16.322 14.6016 16.2666H14.4385C14.4385 16.2628 14.4393 16.2586 14.4395 16.2549C14.4612 16.2444 14.4879 16.2383 14.5029 16.2217C14.5203 16.2025 14.5278 16.1741 14.542 16.1436C14.5534 16.1519 14.5626 16.1578 14.5703 16.165C14.6184 16.21 14.6582 16.2084 14.6826 16.1504C14.7052 16.0962 14.7329 16.0574 14.791 16.0381C14.8135 16.0307 14.8274 15.997 14.8545 15.9639C14.804 15.9508 14.7693 15.9424 14.7354 15.9336C14.7448 15.9066 14.7649 15.8939 14.7949 15.8965C14.8337 15.8999 14.9081 15.8491 14.9111 15.8115C14.9124 15.7951 14.8998 15.7728 14.8867 15.7607C14.8684 15.7442 14.844 15.7345 14.8164 15.7188C14.7953 15.7245 14.7671 15.7322 14.7373 15.7402C14.7353 15.6712 14.8689 15.6966 14.8174 15.5977C14.7821 15.6035 14.7369 15.6175 14.7236 15.54C14.7033 15.5888 14.6835 15.6192 14.6396 15.6045C14.6325 15.6022 14.6196 15.6035 14.6152 15.6084C14.5976 15.6283 14.5724 15.6486 14.5684 15.6719C14.5574 15.7357 14.4423 15.7667 14.5146 15.8535C14.4838 15.878 14.4523 15.8976 14.4287 15.9238C14.37 15.989 14.3043 16.0283 14.2119 16.0137C14.1498 16.0037 14.1379 16.0513 14.1299 16.0986L14.1318 16.0967V16.0996C14.1641 16.1025 14.1965 16.1049 14.2344 16.1084C14.2226 16.1713 14.2293 16.2381 14.3066 16.2783C14.2947 16.2943 14.2807 16.3158 14.2783 16.3164C14.2098 16.2772 14.1388 16.3242 14.0703 16.3096C14.062 16.3078 14.0547 16.3008 14.0391 16.292C14.0628 16.2604 14.0828 16.2281 14.1084 16.2012C14.1379 16.1705 14.137 16.1361 14.1318 16.0996L14.1299 16.0986L13.9961 16.2168C13.9804 16.2301 13.9609 16.2422 13.9414 16.248C13.7823 16.2954 13.6728 16.4142 13.5596 16.5234C13.4948 16.586 13.4474 16.6669 13.3887 16.7441C13.4612 16.8065 13.4136 16.8773 13.4014 16.9443C13.4477 16.9544 13.4884 16.9631 13.5186 16.9697C13.5717 17.0659 13.6095 17.1614 13.7207 17.2002C13.6977 17.281 13.6779 17.3544 13.6562 17.4268C13.6395 17.4831 13.6435 17.4942 13.6963 17.5186C13.7543 17.5454 13.7762 17.5434 13.7998 17.4902C13.828 17.4267 13.8479 17.3591 13.8672 17.292C13.8815 17.2421 13.9071 17.2079 13.9551 17.1836C14.079 17.121 14.1266 17.0261 14.1133 16.8848C14.1116 16.867 14.1062 16.8382 14.1143 16.833C14.188 16.7846 14.1855 16.6916 14.2354 16.6299C14.2497 16.612 14.2566 16.5877 14.2646 16.5654C14.2746 16.538 14.282 16.5096 14.293 16.4736C14.3269 16.4847 14.3535 16.4897 14.377 16.501C14.4151 16.5193 14.4517 16.5411 14.4883 16.5625C14.5007 16.5697 14.5218 16.5811 14.5215 16.5889C14.5143 16.6509 14.5728 16.672 14.6006 16.7158C14.5853 16.7427 14.569 16.7688 14.5566 16.7959C14.5443 16.8231 14.5293 16.8522 14.5283 16.8809C14.5277 16.9039 14.5458 16.9279 14.5557 16.9512C14.5768 16.9419 14.6011 16.9361 14.6182 16.9219C14.643 16.9011 14.6575 16.8626 14.7041 16.8906C14.7281 16.8427 14.7512 16.7973 14.7793 16.7412C14.8266 16.8641 14.7765 16.9865 14.8262 17.1025C14.7859 17.1354 14.7459 17.1678 14.7061 17.2002C14.791 17.2038 14.8462 17.2378 14.8984 17.2969C14.8543 17.3225 14.797 17.28 14.7715 17.3359C14.7814 17.3737 14.809 17.3752 14.8418 17.3691C14.8878 17.3605 14.8854 17.3627 14.9199 17.4141C14.9317 17.4314 14.9598 17.4382 14.9844 17.4521C14.9635 17.4804 14.9445 17.5043 14.9277 17.5293C14.9159 17.5468 14.8975 17.5665 14.8975 17.585C14.8974 17.6633 14.8596 17.7272 14.8262 17.793C14.8239 17.7977 14.8251 17.8043 14.8252 17.8105C14.9121 17.876 14.9355 17.9654 14.8945 18.0781C14.8646 18.0699 14.8498 18.0425 14.8516 17.9961C14.7744 17.9865 14.6963 17.9774 14.6025 17.9658C14.7139 17.8596 14.7897 17.7467 14.8604 17.6143C14.7949 17.6187 14.7559 17.6473 14.7178 17.6748C14.63 17.7381 14.5368 17.7389 14.4414 17.6992C14.3994 17.6816 14.3618 17.6806 14.3184 17.6973C14.2283 17.7319 14.1534 17.7889 14.0811 17.8496C14.0639 17.8641 14.0532 17.887 14.0283 17.9219C14.1041 17.8806 14.1595 17.8348 14.2217 17.8203C14.281 17.8066 14.3426 17.7361 14.4121 17.8018C14.3977 17.8518 14.3553 17.8434 14.3242 17.8555C14.2699 17.8768 14.2658 17.9089 14.3135 17.9482C14.3044 17.9668 14.2922 17.9851 14.2871 18.0049C14.2735 18.058 14.3063 18.1152 14.3613 18.1289C14.3948 18.1371 14.4309 18.1356 14.4658 18.1377L14.4668 18.1348C14.4684 18.1343 14.4701 18.1342 14.4717 18.1338C14.4867 18.1141 14.5026 18.0945 14.5195 18.0723C14.5295 18.083 14.5375 18.0908 14.5557 18.1104C14.5223 18.1196 14.4965 18.127 14.4717 18.1338C14.4707 18.1351 14.4697 18.1364 14.4688 18.1377H14.4658C14.4625 18.1574 14.4526 18.1688 14.4395 18.1768L14.3027 18.2314C14.2733 18.2463 14.2455 18.2647 14.2227 18.292C14.2021 18.3165 14.1736 18.3309 14.1406 18.293C14.1588 18.2648 14.179 18.2349 14.1982 18.2051C14.1842 18.1772 14.1615 18.171 14.1377 18.1865C14.0615 18.2368 13.9834 18.2852 13.9121 18.3418C13.8514 18.3901 13.8552 18.3951 13.8633 18.4766C13.8599 18.4795 13.8559 18.4852 13.8506 18.4873C13.6681 18.5614 13.6661 18.5602 13.5586 18.748C13.5295 18.7988 13.5 18.8402 13.4287 18.8379C13.4411 18.8612 13.4508 18.8758 13.457 18.8916C13.4705 18.9256 13.4677 18.9589 13.4385 18.9834C13.378 19.0339 13.3145 19.0814 13.2549 19.1328C13.207 19.1741 13.1596 19.217 13.1172 19.2637C13.0812 19.3033 13.0755 19.3535 13.0742 19.4082C13.0725 19.4869 13.0799 19.5641 13.0889 19.6416C13.094 19.6872 13.0824 19.732 13.0371 19.7637C12.977 19.7304 12.98 19.6697 12.9707 19.6143C12.9612 19.5575 12.9529 19.4999 12.9385 19.4443C12.9275 19.4024 12.8977 19.3797 12.8496 19.3828C12.8277 19.3842 12.8033 19.3777 12.7832 19.3682C12.7119 19.334 12.6656 19.341 12.6191 19.4053C12.5914 19.4438 12.5633 19.4489 12.5264 19.4258C12.4558 19.3815 12.3898 19.3977 12.334 19.4492C12.2805 19.4984 12.2332 19.5553 12.1855 19.6104C12.1743 19.6234 12.1665 19.642 12.1631 19.6592C12.1425 19.7637 12.1227 19.8686 12.1055 19.9736C12.0915 20.0588 12.1219 20.1379 12.1582 20.2109C12.1923 20.2791 12.254 20.2863 12.3262 20.2656C12.3954 20.2458 12.425 20.2024 12.4404 20.1396C12.4447 20.1223 12.454 20.1061 12.4619 20.0869C12.5128 20.0828 12.5636 20.0786 12.6182 20.0742C12.6224 20.0845 12.6319 20.0957 12.6309 20.1055C12.6145 20.2211 12.5761 20.3295 12.5176 20.4307C12.5067 20.4493 12.4919 20.4854 12.499 20.4922C12.516 20.5082 12.5448 20.5172 12.5693 20.5186C12.5923 20.5197 12.6162 20.5077 12.6396 20.501C12.7309 20.4749 12.7967 20.53 12.7852 20.624C12.7759 20.6996 12.7655 20.7752 12.7559 20.8506C12.7484 20.9094 12.8161 21.034 12.8721 21.042C12.9151 21.048 12.9619 21.026 13.0234 21.0137C13.028 21.0181 13.0478 21.0369 13.0654 21.0566C13.0814 21.0745 13.0953 21.0943 13.1123 21.1162C13.1735 21.0754 13.1875 21.0159 13.2168 20.9688C13.267 20.8882 13.3731 20.8317 13.4893 20.8359C13.4705 20.8685 13.4536 20.895 13.4395 20.9229C13.4264 20.9484 13.4158 20.9756 13.4043 21.002C13.4099 21.0051 13.4162 21.0085 13.4219 21.0117C13.4568 20.9646 13.491 20.9168 13.5312 20.8623C13.5738 20.8829 13.6211 20.8954 13.6533 20.9238C13.7261 20.9879 13.8069 20.9962 13.8926 20.9697C13.9514 20.9516 13.9867 20.9828 14.0186 21.0186C14.03 21.0315 14.0239 21.0609 14.0244 21.0723C14.1043 21.145 14.1804 21.2132 14.2549 21.2832C14.2878 21.3141 14.3231 21.3307 14.3691 21.3311C14.5035 21.3323 14.5878 21.4115 14.6494 21.5205C14.6733 21.5627 14.6934 21.6084 14.708 21.6543C14.7135 21.6723 14.7055 21.6994 14.6943 21.7168C14.6768 21.744 14.6509 21.7665 14.6152 21.8057C14.6609 21.7977 14.6895 21.7845 14.71 21.792C14.7315 21.8 14.7456 21.8289 14.7637 21.8496C14.8342 21.8302 14.853 21.8232 14.8994 21.916C15.0038 21.8725 15.0604 21.938 15.1094 22.0215C15.1313 22.0146 15.1524 22.0108 15.1709 22.002C15.2078 21.9845 15.2371 21.9943 15.2588 22.0254C15.2776 22.0523 15.2989 22.0702 15.334 22.0664C15.4146 22.0576 15.4682 22.0951 15.502 22.166C15.5058 22.1739 15.5126 22.1803 15.5156 22.1846C15.6358 22.1666 15.6972 22.2127 15.7109 22.3301C15.7197 22.4046 15.7031 22.4755 15.665 22.541L15.5391 22.7637C15.5157 22.8033 15.5147 22.8409 15.5264 22.8857C15.573 23.0637 15.5411 23.2372 15.4795 23.4053C15.4548 23.4726 15.4144 23.5277 15.3223 23.5117C15.2943 23.5072 15.2549 23.5347 15.2295 23.5576C15.1916 23.592 15.161 23.6352 15.1191 23.6846C15.1252 23.7052 15.1306 23.7463 15.1484 23.7803C15.1905 23.86 15.168 23.9296 15.1201 23.9932C15.0936 24.0283 15.076 24.0598 15.0781 24.1064C15.0805 24.161 15.0615 24.2135 15.0283 24.2578C14.987 24.2543 14.948 24.2197 14.9131 24.2686C14.9438 24.3203 15.0131 24.3605 14.9756 24.4404C14.9394 24.5173 14.8647 24.5048 14.7969 24.5234C14.8158 24.5666 14.8731 24.5981 14.8369 24.6582C14.7999 24.7192 14.7453 24.6859 14.6777 24.6885C14.7543 24.7744 14.8295 24.8485 14.8213 24.9707C14.8038 24.979 14.7776 24.9913 14.749 25.0049C14.765 25.055 14.8018 25.0886 14.8477 25.1045C14.9065 25.1247 14.9185 25.1625 14.9131 25.2168C14.91 25.2469 14.9131 25.2778 14.9131 25.3135C14.9356 25.3298 14.9597 25.3468 14.9893 25.3682C14.971 25.3829 14.9552 25.3957 14.9336 25.4131C15.0169 25.4762 15.0623 25.5879 15.1875 25.6035C15.2144 25.6069 15.2385 25.6372 15.2637 25.6553C15.2614 25.6631 15.2582 25.6707 15.2559 25.6787C15.2349 25.6796 15.2105 25.6885 15.1934 25.6807C14.9762 25.582 14.7642 25.475 14.6016 25.293C14.5917 25.2818 14.5837 25.2684 14.5771 25.2549C14.5712 25.2426 14.5679 25.229 14.5576 25.1992C14.5984 25.2237 14.6236 25.238 14.6484 25.2529C14.6517 25.2497 14.655 25.2464 14.6582 25.2432C14.6407 25.2261 14.6262 25.2035 14.6055 25.1924C14.4919 25.132 14.4059 25.054 14.4053 24.9121C14.4051 24.8962 14.3838 24.8772 14.3682 24.8652C14.2348 24.7645 14.1698 24.6119 14.0771 24.4805C14.0688 24.4686 14.0639 24.4512 14.0635 24.4365C14.0588 24.2894 13.9931 24.1604 13.9424 24.0273C13.8595 23.8097 13.8134 23.5821 13.7607 23.3564C13.7601 23.3536 13.7602 23.3506 13.7598 23.3477C13.735 23.186 13.6624 23.0521 13.5205 22.9648C13.3654 22.8692 13.2742 22.7293 13.2021 22.5645C13.1506 22.4466 13.063 22.3444 12.9912 22.2354C12.9829 22.2227 12.9725 22.2113 12.9648 22.1982C12.9182 22.1184 12.9266 22.079 13.0029 22.0195C12.9872 21.9882 12.9724 21.9558 12.9551 21.9248C12.9427 21.9028 12.9332 21.8843 12.9482 21.8574C12.957 21.8412 12.9562 21.8162 12.9521 21.7969C12.9381 21.7301 12.9647 21.6788 13.0068 21.6309C13.0851 21.5418 13.1177 21.4364 13.0996 21.3203C13.0889 21.2516 13.0661 21.1841 13.043 21.1182C13.0351 21.0957 13.0127 21.0676 12.9922 21.0625C12.9611 21.0551 12.9487 21.0875 12.9404 21.1143C12.9351 21.1313 12.9317 21.1497 12.9229 21.1885C12.9014 21.1508 12.8915 21.1267 12.876 21.1074C12.8602 21.0878 12.8421 21.0629 12.8203 21.0566C12.7264 21.0306 12.6162 20.93 12.5869 20.835C12.5797 20.8117 12.5774 20.7851 12.5654 20.7646C12.5389 20.7192 12.52 20.6671 12.4453 20.6758C12.4127 20.6795 12.368 20.6543 12.3418 20.6289C12.2966 20.585 12.2578 20.5332 12.2227 20.4805C12.1995 20.4457 12.1727 20.4297 12.1396 20.4521C12.101 20.4783 12.0711 20.4637 12.0391 20.4453C11.924 20.3791 11.8267 20.2921 11.7432 20.1895C11.7135 20.153 11.7029 20.1116 11.7021 20.0625C11.7011 19.9934 11.6928 19.9224 11.6758 19.8555C11.6518 19.7612 11.6199 19.6685 11.5859 19.5771C11.5462 19.4699 11.5269 19.3602 11.5273 19.2461C11.5275 19.2111 11.5348 19.171 11.4902 19.1504C11.451 19.1741 11.4498 19.2119 11.4492 19.252C11.447 19.4054 11.4574 19.5569 11.5098 19.7031C11.5311 19.7626 11.5443 19.8251 11.5498 19.8916C11.5398 19.8759 11.5283 19.8606 11.5205 19.8438C11.484 19.7633 11.449 19.6814 11.4131 19.6006C11.3946 19.5591 11.3717 19.5189 11.3936 19.4707C11.398 19.4606 11.3984 19.4441 11.3936 19.4346C11.3343 19.319 11.404 19.1929 11.3633 19.0762C11.3958 18.9762 11.3514 18.8932 11.3076 18.8086C11.2959 18.7859 11.2921 18.7554 11.2939 18.7295C11.3008 18.6382 11.304 18.5451 11.3232 18.4561C11.3437 18.3618 11.3722 18.2673 11.4121 18.1797C11.4806 18.0302 11.5607 17.8858 11.6357 17.7393C11.6565 17.6985 11.6774 17.6574 11.6973 17.6162C11.7216 17.5659 11.7384 17.5144 11.6982 17.4443C11.7407 17.4501 11.7675 17.4534 11.7939 17.457C11.7961 17.4519 11.8018 17.4455 11.8008 17.4424C11.7463 17.349 11.7644 17.2594 11.8076 17.167C11.8447 17.0877 11.8751 17.0048 11.9033 16.9219C11.9133 16.8925 11.9139 16.8555 11.9062 16.8252C11.8928 16.772 11.8971 16.7287 11.9277 16.6797C11.9852 16.5873 11.9638 16.4846 11.9395 16.3867C11.9336 16.3633 11.8996 16.3466 11.8682 16.3174C11.8818 16.2845 11.8955 16.2375 11.9189 16.1963C12.0036 16.0479 12.0905 15.9003 12.1787 15.7539C12.2037 15.7124 12.2379 15.6763 12.2646 15.6357C12.2823 15.6089 12.2954 15.5787 12.3096 15.5498C12.316 15.5365 12.3179 15.5206 12.3262 15.5088C12.3921 15.4172 12.458 15.3251 12.5264 15.2354C12.5425 15.2142 12.5665 15.1968 12.5898 15.1836C12.6454 15.1526 12.7025 15.1244 12.7598 15.0967C12.8368 15.0594 12.8533 15.0708 12.8848 15.1504C12.8991 15.1866 12.9432 15.2103 12.9609 15.2461C12.9769 15.2783 12.9654 15.3255 12.9834 15.3555C13.0221 15.4197 13.0933 15.4267 13.1572 15.3818C13.1946 15.3558 13.2304 15.3435 13.2646 15.3457C13.2442 15.3823 13.2243 15.4167 13.2051 15.4512C13.2107 15.4561 13.217 15.4619 13.2227 15.4668C13.2406 15.4505 13.2647 15.4372 13.2754 15.417C13.3197 15.3326 13.3383 15.3291 13.4072 15.4062C13.3977 15.4223 13.3869 15.4402 13.3799 15.4521C13.4102 15.4707 13.4396 15.4881 13.4766 15.5107C13.512 15.4774 13.5889 15.509 13.625 15.4385C13.5962 15.4192 13.5691 15.4014 13.54 15.3818C13.5715 15.292 13.6652 15.3358 13.7246 15.2959C13.7022 15.2792 13.6837 15.2667 13.6611 15.25C13.7037 15.1958 13.7441 15.1447 13.7842 15.0938C13.6962 15.1157 13.6561 15.2372 13.5254 15.1943C13.605 15.0986 13.676 15.0128 13.7646 14.9443C13.8 14.917 13.839 14.8884 13.8809 14.876ZM21.6689 14.8047C21.732 14.8082 21.7886 14.8278 21.8301 14.8789C21.8654 14.9223 21.9089 14.9452 21.9727 14.9277C21.9744 14.9119 21.9762 14.8935 21.9785 14.873C22.0407 14.8923 22.0887 14.9196 22.1152 14.9775C22.125 14.999 22.1423 15.018 22.1582 15.0361C22.2374 15.1264 22.2391 15.1276 22.1699 15.2207C22.1523 15.2444 22.1348 15.2663 22.1562 15.293C22.1678 15.3073 22.188 15.3146 22.208 15.3271C22.2219 15.2958 22.2332 15.2721 22.2451 15.2451C22.2992 15.2549 22.3593 15.287 22.377 15.2021C22.4741 15.2805 22.5037 15.2936 22.625 15.3115C22.619 15.2927 22.6157 15.2761 22.6084 15.2617C22.6003 15.2461 22.5887 15.2323 22.582 15.2109C22.6685 15.2313 22.7599 15.2386 22.8271 15.3066C22.872 15.3521 22.9128 15.4023 22.958 15.4473C22.9867 15.4758 23.0207 15.4991 23.0518 15.5244C23.1062 15.4775 23.061 15.4449 23.0498 15.3975C23.1125 15.423 23.1654 15.4451 23.2188 15.4668C23.2236 15.4608 23.2285 15.4542 23.2334 15.4482C23.2022 15.4045 23.1712 15.3602 23.1309 15.3037C23.1661 15.3065 23.1895 15.3024 23.2041 15.3115C23.2367 15.332 23.2658 15.3422 23.3057 15.3301C23.3434 15.3186 23.3676 15.3491 23.3877 15.377C23.4304 15.436 23.4831 15.4704 23.5596 15.4502C23.5972 15.4404 23.6163 15.4682 23.6338 15.4922C23.677 15.5512 23.7234 15.6091 23.7588 15.6729C23.9233 15.9686 24.085 16.2664 24.2471 16.5635C24.2585 16.5845 24.2655 16.608 24.2783 16.6387C24.2122 16.6872 24.2227 16.7555 24.2344 16.8271C24.2546 16.9506 24.3044 17.0608 24.3779 17.1602C24.3955 17.1839 24.4205 17.2041 24.4453 17.2207C24.4984 17.2566 24.5341 17.3048 24.5498 17.3662C24.5822 17.493 24.6125 17.6203 24.6445 17.7471C24.6707 17.8503 24.6994 17.9532 24.7246 18.0566C24.7347 18.098 24.7409 18.1412 24.7441 18.1836C24.7494 18.2538 24.733 18.2843 24.6699 18.3301C24.6825 18.4057 24.6867 18.4826 24.6484 18.5576C24.6295 18.5945 24.654 18.6262 24.6836 18.6533C24.775 18.7373 24.8244 18.8413 24.8242 18.9668C24.8242 19.0056 24.8227 19.0445 24.7773 19.0869V19.0879C24.7629 19.0373 24.7421 18.9979 24.7422 18.959C24.7425 18.854 24.701 18.7725 24.6221 18.708C24.5833 18.6764 24.5468 18.6488 24.5635 18.5869C24.5675 18.5699 24.534 18.5428 24.5107 18.5107C24.4784 18.5561 24.4543 18.5896 24.4199 18.6377C24.4017 18.5914 24.3885 18.5571 24.3691 18.5078C24.339 18.5509 24.312 18.5859 24.2891 18.623C24.264 18.6638 24.2826 18.6987 24.3096 18.7314C24.3343 18.7614 24.3621 18.7713 24.3975 18.7529C24.4406 18.7304 24.466 18.7524 24.4883 18.791C24.4663 18.8331 24.4388 18.874 24.4229 18.9189C24.4127 18.9476 24.4131 18.9841 24.4209 19.0137C24.4249 19.0288 24.4553 19.0438 24.4756 19.0469C24.5315 19.0552 24.5424 19.067 24.5273 19.1201C24.5195 19.1478 24.5096 19.1752 24.498 19.21C24.5545 19.2213 24.6109 19.2175 24.6143 19.292C24.6042 19.3065 24.5887 19.3289 24.5723 19.3525C24.5966 19.3742 24.6301 19.3899 24.6367 19.4131C24.6531 19.4701 24.6723 19.5287 24.6396 19.5898C24.6124 19.6408 24.6056 19.6968 24.6055 19.7568C24.6055 19.8055 24.5803 19.856 24.5586 19.9023C24.5369 19.9491 24.5073 19.9932 24.4785 20.0361C24.4556 20.0703 24.4363 20.1118 24.3779 20.0928C24.3626 20.0883 24.3365 20.113 24.3174 20.127C24.2807 20.1538 24.2455 20.1829 24.2051 20.2148C24.1812 20.1944 24.159 20.1752 24.1357 20.1553C24.0474 20.1845 24.0037 20.2566 23.9707 20.3311C23.9468 20.3851 23.9771 20.4385 24.0107 20.4834C24.0345 20.5149 24.0648 20.5419 24.0889 20.5732C24.1536 20.6577 24.1801 20.7488 24.167 20.8604C24.1525 20.9828 24.1004 21.0707 23.9912 21.1445C23.9759 21.1167 23.9585 21.0907 23.9463 21.0625C23.9267 21.017 23.9085 20.9738 23.8564 20.9531C23.8373 20.9455 23.8241 20.9195 23.8105 20.9004C23.8021 20.8882 23.7991 20.8719 23.79 20.8604C23.7741 20.8401 23.7622 20.8043 23.7295 20.8203C23.7131 20.8285 23.7025 20.8573 23.6982 20.8789C23.6888 20.9267 23.691 20.9781 23.6777 21.0244C23.6418 21.1503 23.6858 21.2504 23.7656 21.3438C23.7843 21.3656 23.804 21.3955 23.8047 21.4219C23.8071 21.5146 23.8261 21.603 23.8574 21.6895C23.8622 21.7028 23.863 21.7176 23.8701 21.752C23.8196 21.704 23.8058 21.6379 23.7393 21.6436C23.7217 21.7015 23.7706 21.7264 23.7949 21.7637C23.7531 21.8447 23.7833 21.9089 23.8428 21.9697C23.8594 21.9589 23.8741 21.9493 23.8877 21.9404C23.9219 21.9621 23.8906 22.1264 23.835 22.2178C23.7777 22.2197 23.7527 22.1807 23.7305 22.1348C23.7122 22.097 23.6875 22.0621 23.6689 22.0244C23.6549 21.9958 23.6402 21.9656 23.6357 21.9346C23.6134 21.7791 23.5701 21.6323 23.4736 21.5049C23.4573 21.4834 23.4355 21.4617 23.4707 21.4229C23.5553 21.4741 23.6047 21.5735 23.7012 21.6201C23.7338 21.5068 23.6991 21.4064 23.665 21.3066C23.6532 21.272 23.6351 21.2393 23.626 21.2041C23.6176 21.1723 23.6068 21.1343 23.6162 21.1055C23.6709 20.9371 23.615 20.7817 23.5645 20.626C23.5562 20.6007 23.5314 20.5808 23.5127 20.5566C23.4806 20.5799 23.4578 20.597 23.4219 20.623C23.4164 20.585 23.4128 20.5594 23.4092 20.5342C23.3974 20.4541 23.3913 20.375 23.3271 20.3096C23.2866 20.2681 23.2674 20.2061 23.2432 20.1621H23.0898C23.0886 20.1626 23.0829 20.165 23.0801 20.1689C23.0083 20.2744 22.9373 20.3808 22.8643 20.4854C22.8439 20.5145 22.8187 20.5419 22.791 20.5645C22.7312 20.6129 22.6987 20.6663 22.6982 20.75C22.6979 20.8493 22.6729 20.9488 22.6572 21.0479C22.6501 21.0933 22.6257 21.1271 22.5684 21.1426C22.4651 21.0068 22.4309 20.8379 22.375 20.6797C22.3194 20.5224 22.2833 20.3599 22.2949 20.1895C22.2889 20.1887 22.2825 20.1882 22.2764 20.1875C22.2652 20.2066 22.2539 20.2258 22.2432 20.2451C22.2264 20.2752 22.1985 20.2852 22.1758 20.2627C22.1382 20.2253 22.0882 20.1949 22.0742 20.1328C22.0949 20.1133 22.1155 20.0931 22.1406 20.0693C22.0483 20.0758 21.9854 20.0366 21.9521 19.9512C21.917 19.9507 21.8762 19.947 21.8359 19.9502C21.7107 19.9599 21.587 19.9527 21.4658 19.9189C21.438 19.9111 21.4037 19.8986 21.3887 19.877C21.3617 19.8375 21.3278 19.825 21.2871 19.835C21.2433 19.8456 21.2103 19.8286 21.1768 19.8066C21.1463 19.7866 21.1134 19.7687 21.0859 19.7451C21.0643 19.7266 21.0486 19.7009 21.0312 19.6777C21.0042 19.6418 20.9778 19.6051 20.9531 19.5713C20.8651 19.6016 20.8508 19.6308 20.8857 19.6992C20.9075 19.7419 20.9357 19.7816 20.9551 19.8252C20.9774 19.8757 21.0215 19.87 21.0664 19.8701C21.0664 19.9005 21.0651 19.927 21.0664 19.9531C21.0698 20.0283 21.1218 20.0639 21.1904 20.0322C21.2222 20.0175 21.2477 19.9879 21.2764 19.9658C21.2938 19.9523 21.3124 19.9396 21.3301 19.9268C21.3601 19.9943 21.3854 20.0527 21.4102 20.1084C21.4264 20.1096 21.4368 20.1131 21.4443 20.1104C21.4861 20.0954 21.5326 20.097 21.5498 20.1357C21.5675 20.1757 21.5908 20.2214 21.5645 20.2725C21.5086 20.381 21.4545 20.4903 21.3564 20.5684C21.3335 20.5866 21.3047 20.6127 21.2803 20.6113C21.2251 20.6081 21.2033 20.6389 21.1836 20.6787C21.1649 20.7164 21.1429 20.7436 21.0928 20.7383C21.0725 20.7362 21.0497 20.7567 21.0283 20.7676C20.939 20.8129 20.8501 20.8594 20.7598 20.9023C20.7437 20.9099 20.72 20.9038 20.7002 20.9014C20.6527 20.8955 20.6257 20.9125 20.6299 20.957C20.6333 20.9922 20.6443 21.0303 20.6631 21.0596C20.6756 21.0786 20.7096 21.096 20.7314 21.0938C20.8408 21.0826 20.9517 21.0749 21.0508 21.0166C21.0683 21.0062 21.0949 21.0112 21.1172 21.0088C21.119 21.0318 21.1258 21.056 21.1221 21.0781C21.0695 21.3817 20.9247 21.6321 20.6846 21.8262C20.6029 21.8922 20.5364 21.9694 20.4873 22.0635C20.4579 22.1197 20.4113 22.1674 20.3818 22.2236C20.3585 22.2679 20.3472 22.3191 20.334 22.3682C20.3238 22.4057 20.3164 22.4448 20.3125 22.4834C20.3097 22.5118 20.3112 22.5421 20.3164 22.5703C20.3246 22.6144 20.3446 22.658 20.3477 22.7021C20.3563 22.8275 20.3473 22.9519 20.3018 23.0713C20.2813 23.1247 20.2498 23.1676 20.1982 23.1943C20.1632 23.2125 20.1265 23.229 20.0947 23.252C20.0507 23.2836 20.0059 23.3166 19.9697 23.3564C19.9227 23.4085 19.9078 23.4716 19.9229 23.5439C19.9325 23.5903 19.9372 23.6423 19.9268 23.6875C19.9134 23.7441 19.8768 23.7935 19.8174 23.8154C19.7692 23.8331 19.7439 23.865 19.7383 23.916C19.7298 23.9948 19.6896 24.0596 19.6406 24.1201C19.5374 24.2478 19.4112 24.3475 19.2676 24.4248C19.2448 24.4369 19.2158 24.4402 19.1895 24.4434C19.1115 24.4527 19.0322 24.456 18.9551 24.4697C18.885 24.482 18.8138 24.4305 18.8174 24.3594C18.8184 24.3385 18.828 24.3179 18.8301 24.2969C18.833 24.267 18.8426 24.2323 18.832 24.207C18.7959 24.1209 18.7554 24.0356 18.71 23.9541C18.6734 23.8884 18.6475 23.8258 18.6631 23.7471C18.678 23.6719 18.6698 23.5962 18.6387 23.5234C18.6063 23.448 18.5788 23.3699 18.5498 23.293C18.5285 23.2364 18.5322 23.1802 18.5508 23.123C18.5638 23.083 18.5731 23.04 18.5781 22.998C18.585 22.9422 18.5992 22.8901 18.6377 22.8477C18.6702 22.8118 18.6834 22.7721 18.6738 22.7227C18.6492 22.5973 18.6316 22.47 18.6025 22.3457C18.5905 22.2944 18.5597 22.246 18.5312 22.2002C18.5024 22.1539 18.4664 22.1115 18.4326 22.0684C18.4063 22.0348 18.4006 21.9997 18.4102 21.957C18.4268 21.8829 18.436 21.8073 18.4492 21.7324C18.462 21.6601 18.426 21.6061 18.376 21.5645C18.3572 21.5488 18.3172 21.5468 18.291 21.5537C18.2378 21.5676 18.2033 21.5487 18.1729 21.5088C18.1496 21.4781 18.1276 21.428 18.0996 21.4238C18.0354 21.4144 17.9656 21.4198 17.9014 21.4336C17.8205 21.451 17.7442 21.4941 17.6602 21.4922C17.6012 21.4909 17.5425 21.4781 17.4834 21.4932C17.4718 21.4961 17.4554 21.4901 17.4473 21.4961C17.3501 21.5692 17.2802 21.4874 17.2109 21.4473C17.1071 21.3874 17.0255 21.2991 16.9688 21.1904C16.9535 21.1613 16.9309 21.136 16.9111 21.1094C16.904 21.0996 16.8874 21.0915 16.8867 21.082C16.8813 21.0108 16.8204 20.9824 16.7822 20.9355C16.7283 20.8694 16.6878 20.7929 16.7227 20.6973C16.7444 20.6381 16.7613 20.5732 16.7637 20.5107C16.7662 20.4392 16.7573 20.3655 16.7402 20.2959C16.7275 20.244 16.7319 20.2051 16.7588 20.1582C16.822 20.0479 16.879 19.9332 16.9336 19.8184C16.9634 19.7558 17.0001 19.7038 17.0615 19.6689C17.0929 19.6512 17.1218 19.6279 17.1484 19.6035C17.1975 19.5584 17.2318 19.504 17.2207 19.4336C17.2125 19.3821 17.2343 19.3438 17.2695 19.3125C17.3632 19.2298 17.4499 19.1406 17.5176 19.0166C17.5391 19.0722 17.574 19.0773 17.6162 19.0703C17.6354 19.0672 17.6623 19.069 17.6768 19.0801C17.7305 19.1216 17.7789 19.1003 17.8154 19.0635C17.8719 19.0062 17.9418 18.9902 18.0146 18.9854C18.1048 18.9794 18.1957 18.9809 18.2861 18.9814C18.323 18.9817 18.3551 18.9793 18.3887 18.957C18.4506 18.9158 18.5133 18.952 18.5264 19.0283C18.5307 19.0543 18.5445 19.0793 18.5557 19.1094C18.5391 19.139 18.5199 19.1729 18.502 19.2051C18.5395 19.2739 18.5999 19.3015 18.668 19.3105C18.7232 19.3179 18.764 19.3391 18.7969 19.3857C18.8512 19.4624 18.9418 19.4819 19.0234 19.5117C19.0591 19.5249 19.0802 19.4937 19.0801 19.4395C19.0799 19.3641 19.0984 19.3349 19.1621 19.3203C19.1813 19.3161 19.2046 19.3191 19.2236 19.3252C19.255 19.3354 19.2876 19.3468 19.3145 19.3652C19.4096 19.4309 19.5266 19.4328 19.6299 19.4736C19.6492 19.4811 19.687 19.4699 19.7021 19.4541C19.7381 19.4156 19.771 19.407 19.8135 19.4395C19.825 19.4482 19.8401 19.4542 19.8545 19.457C19.9134 19.4685 19.9409 19.4584 19.959 19.3994C19.991 19.295 20.0152 19.1881 20.042 19.082C20.0463 19.0645 20.0479 19.0459 20.0518 19.0234C20.02 18.9958 19.9868 18.971 19.9404 18.9951C19.8734 19.0302 19.8176 19.0139 19.7686 18.9609C19.7626 18.9545 19.7531 18.9506 19.7422 18.9434C19.73 18.965 19.719 18.9857 19.7031 19.0137C19.6536 18.9917 19.6039 18.9714 19.5566 18.9482C19.487 18.9141 19.4815 18.9007 19.498 18.8232C19.4845 18.8178 19.4708 18.812 19.4551 18.8057C19.4606 18.7796 19.466 18.7566 19.4717 18.7305H19.4023C19.3981 18.7137 19.3925 18.6939 19.3887 18.6738C19.3814 18.6354 19.3625 18.6035 19.3203 18.6084C19.2928 18.6118 19.261 18.6269 19.2441 18.6475C19.2367 18.6567 19.2597 18.6935 19.2725 18.7158C19.2778 18.725 19.2922 18.7291 19.3145 18.7432C19.2814 18.7572 19.2643 18.7646 19.2393 18.7754C19.2581 18.8098 19.2763 18.8438 19.2959 18.8799C19.2809 18.9028 19.2629 18.9308 19.2432 18.9609C19.1599 18.9567 19.198 18.8314 19.1045 18.835C19.1296 18.7785 19.1127 18.7377 19.083 18.6953C19.0588 18.6609 19.0248 18.6244 19.0479 18.5713C19.0531 18.5593 19.0371 18.5312 19.0234 18.5186C18.9749 18.4743 18.9276 18.425 18.8711 18.3936C18.7891 18.3477 18.7494 18.2705 18.7002 18.1992C18.6952 18.192 18.6881 18.1857 18.6797 18.1768C18.6578 18.203 18.6366 18.2278 18.6074 18.2627C18.6505 18.3342 18.6859 18.4162 18.7422 18.4795C18.7966 18.5406 18.8737 18.5824 18.9521 18.6416C18.9205 18.6442 18.9016 18.6455 18.8779 18.6475C18.863 18.7095 18.9337 18.7847 18.8457 18.8389C18.8447 18.8385 18.8335 18.835 18.8135 18.8281C18.8606 18.7722 18.8204 18.7236 18.8086 18.6797C18.757 18.6435 18.7024 18.6175 18.665 18.5762C18.6052 18.5098 18.5184 18.4618 18.5039 18.3584C18.5006 18.3344 18.4668 18.3142 18.4453 18.291C18.4157 18.3084 18.3907 18.3218 18.3682 18.3369C18.3131 18.3737 18.265 18.4142 18.1865 18.3818C18.1449 18.3646 18.0911 18.3892 18.0508 18.4316C18.0552 18.4547 18.0603 18.4808 18.0664 18.5117C18.0433 18.5272 18.0217 18.5443 17.998 18.5566C17.9498 18.5819 17.8988 18.5996 17.8857 18.666C17.8808 18.6892 17.8439 18.706 17.8174 18.7295C17.8282 18.7539 17.839 18.7774 17.8516 18.8057C17.8275 18.8526 17.7955 18.8983 17.7451 18.9229C17.6997 18.9449 17.6551 18.9707 17.5986 18.9658C17.5727 18.9635 17.5443 18.9849 17.5098 18.999C17.4944 18.9736 17.476 18.9443 17.4561 18.9111C17.4055 18.9144 17.3447 18.9471 17.3174 18.875V18.7295C17.3339 18.7078 17.3707 18.6685 17.3467 18.6094C17.3429 18.6 17.3451 18.5825 17.3516 18.5752C17.3964 18.5279 17.3938 18.4769 17.3633 18.4307C17.4007 18.3627 17.4534 18.3533 17.5156 18.3623C17.5849 18.3723 17.6549 18.3794 17.7246 18.3867C17.7955 18.3942 17.8177 18.3817 17.835 18.3115C17.8772 18.14 17.8417 18.0449 17.6992 17.9658C17.6895 17.9604 17.6808 17.9523 17.6631 17.9395C17.7392 17.9101 17.7982 17.8667 17.873 17.8545C17.9529 17.8416 18.0032 17.7942 18.0098 17.7021C18.0992 17.7277 18.1243 17.6216 18.2021 17.6172C18.2063 17.5947 18.2104 17.5773 18.2129 17.5596C18.2184 17.5205 18.2386 17.4989 18.2803 17.5029C18.289 17.5038 18.2981 17.507 18.3066 17.5059C18.4159 17.4912 18.4195 17.4847 18.3955 17.375C18.3893 17.3462 18.3955 17.3133 18.3848 17.2871C18.3603 17.228 18.3845 17.1964 18.4336 17.1689C18.456 17.1562 18.4732 17.1329 18.501 17.1064C18.5053 17.1297 18.5127 17.1464 18.5098 17.1602C18.4924 17.2356 18.5429 17.301 18.54 17.377C18.5263 17.3886 18.5112 17.4024 18.4961 17.415C18.5123 17.4321 18.5268 17.4472 18.5352 17.4561C18.5825 17.4404 18.6233 17.4263 18.666 17.4121C18.6861 17.4435 18.7018 17.4679 18.7217 17.499C18.73 17.4872 18.7364 17.4806 18.7402 17.4727C18.7664 17.4191 18.8077 17.3966 18.8643 17.4053C18.9132 17.4127 18.9391 17.3987 18.9951 17.3301C19.0163 17.3439 19.0367 17.3626 19.0605 17.3701C19.0803 17.3763 19.1123 17.3769 19.124 17.3652C19.1362 17.3527 19.1405 17.3159 19.1309 17.3008C19.0876 17.2328 19.1089 17.1686 19.125 17.0928C19.1494 17.11 19.1627 17.1221 19.1777 17.1309C19.1995 17.1434 19.2281 17.1564 19.2422 17.1279C19.2507 17.1108 19.2463 17.0812 19.2373 17.0625C19.2231 17.0331 19.1995 17.0083 19.1738 16.9727C19.2185 16.956 19.2569 16.9408 19.2891 16.9287C19.3619 16.9472 19.3286 17.0244 19.374 17.0596C19.4161 17.0143 19.3661 16.9713 19.377 16.9248C19.4017 16.9068 19.4308 16.8858 19.459 16.8652C19.4356 16.8229 19.4033 16.8111 19.3623 16.8301C19.3353 16.8425 19.3036 16.8491 19.2812 16.8672C19.2299 16.9089 19.1726 16.8703 19.1191 16.8838C19.1088 16.8862 19.08 16.8681 19.082 16.833C19.0847 16.789 19.0744 16.7426 19.0625 16.6992C19.0464 16.6407 19.0577 16.5912 19.0957 16.5459C19.129 16.5063 19.1632 16.4672 19.1953 16.4268C19.2263 16.3877 19.2374 16.3398 19.209 16.2998C19.1929 16.2774 19.15 16.2557 19.125 16.2607C19.0865 16.2685 19.03 16.2882 19.0332 16.3369C19.0421 16.4764 18.9289 16.5351 18.8584 16.6221C18.8491 16.6335 18.8344 16.6405 18.8174 16.6543C18.8332 16.6794 18.8492 16.7048 18.8643 16.7285C18.834 16.797 18.8525 16.8595 18.9199 16.917C18.9088 16.94 18.8972 16.9644 18.8857 16.9883C18.8312 16.966 18.7934 16.9932 18.7988 17.0498C18.8036 17.1003 18.8111 17.1507 18.8184 17.208C18.7527 17.1943 18.7616 17.2598 18.7266 17.2773C18.6916 17.295 18.657 17.3135 18.6162 17.335C18.6024 17.3125 18.5892 17.2914 18.5752 17.2686C18.5939 17.2525 18.6099 17.238 18.6289 17.2217C18.5945 17.1329 18.5604 17.0449 18.5264 16.957C18.4317 17.0034 18.3592 17.1063 18.2471 17.0078C18.2614 16.9606 18.2789 16.9114 18.2178 16.8809C18.2349 16.8534 18.2492 16.8303 18.2656 16.8037C18.2536 16.7841 18.2415 16.7643 18.2305 16.7461C18.2725 16.628 18.3692 16.5708 18.4668 16.5127C18.493 16.4971 18.5148 16.4673 18.5293 16.4395C18.5753 16.3508 18.6133 16.2578 18.6621 16.1709C18.6854 16.1296 18.7258 16.0975 18.7598 16.0625C18.7787 16.043 18.8002 16.0263 18.8359 15.9941C18.7782 16.0115 18.7395 16.0227 18.7012 16.0342L18.6934 16.0195C18.7146 16.0005 18.733 15.9745 18.7578 15.9639C18.815 15.9397 18.8682 15.9152 18.9062 15.8604C18.92 15.8415 18.9638 15.8431 18.999 15.834C19.0122 15.8138 19.029 15.7869 19.0498 15.7549C19.0798 15.7774 19.1034 15.7949 19.1318 15.8164C19.1562 15.7866 19.1783 15.76 19.208 15.7236C19.2274 15.7536 19.2427 15.7773 19.2598 15.8037C19.283 15.7824 19.3058 15.7607 19.3291 15.7393C19.3606 15.7635 19.3888 15.7853 19.4229 15.8115C19.4037 15.8237 19.3863 15.8346 19.3564 15.8535C19.5901 15.8862 19.7638 16.0235 19.96 16.1094C19.938 16.1616 19.9164 16.2131 19.8926 16.2695C19.7956 16.2413 19.7011 16.2137 19.5977 16.1836C19.6331 16.2632 19.6739 16.3258 19.6865 16.3936C19.6967 16.4491 19.7262 16.4803 19.7627 16.5107C19.7731 16.5191 19.7936 16.515 19.8096 16.5166C19.8089 16.5006 19.8131 16.4818 19.8066 16.4688C19.7943 16.4439 19.7755 16.4219 19.7588 16.3975C19.8104 16.3616 19.8455 16.3937 19.8799 16.4062C19.9198 16.4208 19.9499 16.4211 19.9717 16.373C19.9568 16.354 19.9409 16.3332 19.9248 16.3125C19.944 16.2737 19.9622 16.237 19.9814 16.1982C20.0067 16.2106 20.0329 16.2233 20.0635 16.2383C20.1167 16.148 20.0862 16.0573 20.0811 15.9639C20.1343 15.9646 20.155 16.0064 20.1865 16.0273C20.1798 16.0675 20.1731 16.1043 20.167 16.1406C20.1821 16.1441 20.1919 16.1482 20.1934 16.1465C20.2524 16.067 20.3555 16.0497 20.4248 15.9834C20.4621 15.9478 20.5071 15.924 20.5654 15.9531C20.5965 15.9687 20.636 15.9707 20.6719 15.9727C20.6957 15.9739 20.7204 15.9645 20.7666 15.9551C20.7124 15.899 20.6735 15.8586 20.6338 15.8174C20.7187 15.8021 20.72 15.8005 20.8633 15.8682C20.937 15.903 21.0071 15.9463 21.0918 15.9932C21.0918 15.9701 21.0974 15.9495 21.0898 15.9375C21.0721 15.9094 21.0465 15.8862 21.0264 15.8594C20.9829 15.8011 20.9112 15.7508 20.9648 15.6621C20.932 15.591 20.9712 15.5185 20.9619 15.4463C20.956 15.4005 20.9611 15.3991 21.0254 15.376C21.0366 15.442 21.031 15.5234 21.1396 15.5244C21.1373 15.4945 21.1345 15.4664 21.1318 15.4326C21.1708 15.4611 21.1879 15.4946 21.167 15.5332C21.1431 15.577 21.1529 15.6174 21.1709 15.6562C21.2272 15.7777 21.2826 15.9 21.3447 16.0186C21.384 16.0937 21.3962 16.1607 21.3291 16.2256C21.3515 16.2521 21.368 16.2819 21.4053 16.2578C21.4381 16.2365 21.4613 16.2064 21.4502 16.166C21.4356 16.1134 21.4148 16.0623 21.3965 16.0107C21.3899 15.9921 21.3829 15.9727 21.3721 15.9414C21.4354 15.958 21.4868 15.9718 21.5459 15.9873C21.5322 15.9599 21.5189 15.9322 21.502 15.8984C21.4809 15.9062 21.4625 15.9159 21.4434 15.9199C21.3821 15.9327 21.3437 15.9143 21.3164 15.8574C21.2851 15.7914 21.2554 15.7243 21.2266 15.6572C21.2103 15.6193 21.2133 15.6088 21.249 15.5527C21.2831 15.597 21.3154 15.6389 21.3477 15.6807C21.3531 15.6788 21.3587 15.6767 21.3643 15.6748C21.3567 15.6425 21.3509 15.6096 21.3408 15.5781C21.3346 15.559 21.3264 15.5405 21.3311 15.5225L21.3408 15.5049C21.3617 15.5138 21.3854 15.5194 21.4023 15.5332C21.4206 15.5482 21.4323 15.5713 21.4551 15.5869C21.4564 15.5408 21.4308 15.4929 21.4951 15.4766C21.4572 15.4431 21.4185 15.4163 21.3896 15.3818C21.332 15.3134 21.3548 15.2601 21.4434 15.2432C21.4652 15.2389 21.4863 15.2283 21.5166 15.2178C21.485 15.1782 21.4606 15.1483 21.4326 15.1133C21.5131 15.0341 21.6511 15.0605 21.7148 14.9512C21.7043 14.9419 21.6939 14.9314 21.6826 14.9229C21.6706 14.9137 21.6576 14.9058 21.6436 14.8965V14.8154C21.6532 14.8113 21.6613 14.8044 21.6689 14.8047ZM20.8262 22.8955C20.8566 22.8572 20.8959 22.8627 20.9033 22.9111C20.9104 22.9573 20.9119 23.0113 20.8945 23.0527L20.5947 23.7373C20.5923 23.7427 20.59 23.7488 20.5869 23.7539C20.5557 23.8045 20.4815 23.8437 20.4424 23.8311C20.4073 23.8195 20.3705 23.7471 20.3721 23.6816C20.3933 23.6267 20.3904 23.5561 20.4443 23.499C20.4895 23.4511 20.5301 23.393 20.5039 23.3115C20.4841 23.249 20.5152 23.1993 20.5732 23.1689C20.6664 23.1201 20.7407 23.053 20.7871 22.957C20.7975 22.9353 20.8112 22.9145 20.8262 22.8955ZM24.2959 22.4238C24.2782 22.4351 24.2599 22.4458 24.2422 22.457L24.2266 22.4287C24.2464 22.4207 24.2665 22.4132 24.2861 22.4053C24.2893 22.4113 24.2928 22.4178 24.2959 22.4238ZM23.8516 22.2871C23.9415 22.2734 24.0146 22.2964 24.085 22.3154C24.1158 22.3238 24.1369 22.3695 24.1621 22.3984C24.0345 22.4234 23.9517 22.3964 23.8516 22.2871ZM20.1133 21.9883C20.0506 21.918 20.0291 21.9117 19.9844 21.9473C19.93 21.9906 19.9265 22.0625 19.9766 22.1309C20.0418 22.1054 20.0838 22.0575 20.1133 21.9883ZM24.4941 21.2793C24.5711 21.3004 24.5584 21.3502 24.541 21.3857C24.5144 21.4405 24.5216 21.4963 24.5137 21.5518C24.5037 21.6204 24.493 21.6933 24.4736 21.7568C24.4563 21.814 24.4497 21.8774 24.4209 21.9307C24.3926 21.9831 24.3563 22.0311 24.3223 22.082C24.2727 22.0231 24.2721 22.0243 24.1846 22.0264C24.1594 22.0269 24.1339 22.0163 24.1035 22.0098C24.114 21.9745 24.1719 21.9638 24.1406 21.9248C24.1208 21.9001 24.0917 21.883 24.0703 21.8652C24.0837 21.8451 24.1076 21.8257 24.1094 21.8047C24.1176 21.7084 24.1374 21.6881 24.2354 21.6953C24.2585 21.6323 24.3322 21.5972 24.3359 21.5205C24.4278 21.4668 24.4679 21.3751 24.4941 21.2793ZM23.499 21.7832C23.4922 21.7858 23.4853 21.7884 23.4785 21.791L23.4551 21.7139C23.4589 21.7125 23.4629 21.7114 23.4668 21.71C23.4775 21.7343 23.4883 21.7589 23.499 21.7832ZM22.7178 21.0625C22.8033 21.1404 22.8135 21.2562 22.7422 21.3447C22.6961 21.3035 22.6858 21.1864 22.7178 21.0625ZM20.0205 19.6787C19.9848 19.7251 19.952 19.7616 19.9658 19.8164C20.0002 19.952 20.0665 20.0689 20.1719 20.1699C20.1673 20.262 20.1803 20.3532 20.2646 20.4189C20.2742 20.4263 20.2824 20.4488 20.2783 20.459C20.2539 20.5212 20.3001 20.5534 20.3311 20.5918C20.3614 20.6295 20.3933 20.6666 20.4238 20.7041C20.462 20.751 20.4989 20.7996 20.5391 20.8447C20.5481 20.8544 20.5734 20.859 20.585 20.8535C20.5965 20.8479 20.6069 20.8258 20.6064 20.8115C20.6048 20.7662 20.5997 20.7206 20.5918 20.6758C20.5808 20.6129 20.5602 20.5592 20.5107 20.5088L20.4707 20.4561C20.4348 20.3997 20.4084 20.3341 20.3584 20.2861C20.3519 20.2795 20.354 20.2629 20.3535 20.251C20.351 20.1884 20.345 20.1284 20.2783 20.0957C20.264 20.0887 20.2551 20.0685 20.2461 20.0527C20.19 19.9553 20.1347 19.8569 20.0781 19.7598C20.0621 19.7323 20.0413 19.7079 20.0205 19.6787ZM24.7266 20.3984C24.7346 20.4676 24.7509 20.5397 24.7012 20.6182C24.6566 20.5321 24.7214 20.4682 24.7266 20.3984ZM24.1885 20.2812C24.2547 20.3091 24.2342 20.344 24.2158 20.376C24.1969 20.4088 24.1714 20.4276 24.127 20.3896L24.1885 20.2812ZM13.4395 20.2324C13.5812 20.2467 13.5877 20.2501 13.6445 20.3096C13.5686 20.3954 13.4802 20.3427 13.3828 20.333C13.4196 20.3021 13.4745 20.2897 13.4395 20.2324ZM12.9629 19.958C13.0922 20.0224 13.2179 20.0948 13.3447 20.1641L13.3359 20.1914C13.2976 20.1914 13.2591 20.1923 13.2207 20.1914C13.2092 20.1912 13.1942 20.1903 13.1865 20.1836C13.1447 20.146 13.1008 20.109 13.0645 20.0664C13.0167 20.0104 12.9649 19.982 12.8906 20.0078C12.8753 20.013 12.8559 20.0078 12.8252 20.0078C12.8721 19.965 12.916 19.9348 12.9629 19.958ZM24.6758 19.8682C24.6972 19.9274 24.6828 19.9861 24.6699 20.0449C24.6688 19.9862 24.6425 19.9259 24.6758 19.8682ZM19.9111 19.1348C19.8802 19.1524 19.8464 19.1551 19.8115 19.1455C19.8114 19.1373 19.8118 19.1283 19.8115 19.1201C19.844 19.1185 19.8767 19.1169 19.9092 19.1152C19.9098 19.1217 19.9105 19.1283 19.9111 19.1348ZM20.9531 18.1475C20.8946 18.1023 20.774 18.1213 20.7158 18.1943C20.6836 18.235 20.6416 18.2772 20.6484 18.3389C20.6569 18.4126 20.6805 18.4809 20.7285 18.5391C20.7609 18.5784 20.7911 18.6197 20.8203 18.6572C20.7638 18.8131 20.8253 18.9451 20.9648 18.9883C21.032 19.009 21.084 18.9984 21.125 18.9287C21.111 18.8958 21.0816 18.8609 21.0879 18.8359L21.0928 18.791C21.089 18.7514 21.0617 18.7259 21.0283 18.7031C21.0283 18.6926 21.0257 18.6851 21.0283 18.6807C21.0649 18.6196 21.068 18.5673 20.9941 18.5312C20.9856 18.527 20.9829 18.511 20.9766 18.501C20.9541 18.4655 20.9307 18.4306 20.9092 18.3945C20.8991 18.3776 20.8927 18.3586 20.8838 18.3379C20.9111 18.3229 20.9342 18.3141 20.9531 18.2998C21.0112 18.2558 21.0105 18.1919 20.9531 18.1475ZM18.7559 18.9678C18.7183 18.9445 18.6891 18.9262 18.6602 18.9082L18.6611 18.8916C18.6929 18.887 18.7252 18.8829 18.7666 18.877C18.7629 18.9087 18.7599 18.9325 18.7559 18.9678ZM18.4141 18.6133C18.4609 18.7017 18.46 18.7206 18.4102 18.7607C18.3787 18.7048 18.3783 18.6723 18.4141 18.6133ZM19.7441 18.1562C19.6968 18.1227 19.6646 18.1626 19.6289 18.1807C19.5866 18.2018 19.6026 18.2357 19.6191 18.2686C19.5259 18.3257 19.5442 18.4353 19.4971 18.5137C19.4925 18.5222 19.5028 18.5423 19.5098 18.5547C19.5342 18.5983 19.5747 18.6183 19.623 18.6152C19.6556 18.6131 19.6889 18.6047 19.7197 18.5938C19.8364 18.5521 19.9487 18.5246 20.0605 18.6143C20.1256 18.6665 20.2069 18.6409 20.2803 18.627L20.3115 18.6133C20.3373 18.5933 20.3424 18.557 20.3232 18.5205C20.2933 18.4636 20.2507 18.4192 20.1934 18.3867C20.141 18.3571 20.089 18.3238 20.0439 18.2842C19.9768 18.2251 19.9513 18.225 19.8926 18.3027C19.8638 18.2904 19.8337 18.2774 19.8037 18.2646C19.8235 18.2237 19.8139 18.1934 19.7754 18.1748C19.7645 18.1695 19.754 18.1633 19.7441 18.1562ZM18.4141 18.5391C18.394 18.5073 18.386 18.4792 18.4365 18.4492C18.4268 18.4893 18.4202 18.5141 18.4141 18.5391ZM13.3789 18.3486C13.2373 18.3663 13.2262 18.3747 13.2344 18.4521C13.2843 18.4162 13.3318 18.3826 13.3789 18.3486ZM13.4307 17.9971C13.3739 17.9503 13.1331 17.9912 13.1025 18.0596C13.0544 18.1696 13.0176 18.2854 12.9746 18.4033C13.0269 18.4207 13.0359 18.399 13.0459 18.374C13.0785 18.2921 13.1125 18.2109 13.1475 18.1299C13.1794 18.0557 13.2442 18.0327 13.3174 18.0605C13.3609 18.0771 13.3917 18.1076 13.4346 18.1562C13.4425 18.103 13.4496 18.0687 13.4512 18.0342C13.4518 18.022 13.4411 18.0058 13.4307 17.9971ZM13.3535 18.1035C13.2727 18.1329 13.2308 18.2284 13.252 18.3311C13.3117 18.2591 13.3242 18.1828 13.3535 18.1035ZM13.4785 18.2373C13.4385 18.2488 13.4176 18.2734 13.4375 18.3281C13.51 18.2898 13.5775 18.2557 13.6494 18.2178C13.634 18.2061 13.6284 18.1984 13.625 18.1992C13.5761 18.2111 13.5269 18.2236 13.4785 18.2373ZM19.9121 18.1484C19.9239 18.2302 19.9944 18.2053 20.0439 18.2412C20.0357 18.1732 20.1377 18.1479 20.0723 18.0713C20.0167 18.0982 19.965 18.1229 19.9121 18.1484ZM13.2705 17.7275C13.169 17.6889 13.1114 17.7816 13.0322 17.7969C13.0057 17.8021 12.973 17.8163 12.9756 17.8613L13.0068 17.8672C13.0638 17.8603 13.1145 17.8664 13.1523 17.9189C13.1618 17.9316 13.1898 17.9375 13.208 17.9355C13.2396 17.932 13.2705 17.9195 13.3115 17.9082C13.2616 17.8534 13.2583 17.7927 13.2705 17.7275ZM17.8145 17.0107C17.8705 17.0705 17.8279 17.1188 17.7881 17.167C17.8122 17.1924 17.8328 17.2145 17.8516 17.2344C17.842 17.3323 17.8302 17.3656 17.916 17.3779C17.8999 17.44 17.9231 17.4871 17.9863 17.5195H17.9873C17.9625 17.5534 17.941 17.5816 17.917 17.6143C17.9346 17.6232 17.9523 17.6314 17.9707 17.6406C17.9682 17.6652 17.9656 17.6884 17.9629 17.7148C17.928 17.7519 17.9009 17.754 17.8486 17.7275C17.8342 17.7203 17.8126 17.7189 17.7969 17.7236C17.7598 17.7346 17.7244 17.751 17.6865 17.7656C17.6773 17.7478 17.667 17.7276 17.6553 17.7051C17.6831 17.6822 17.71 17.6585 17.7383 17.6367C17.7475 17.6298 17.76 17.6273 17.7783 17.6191C17.7399 17.6061 17.7077 17.5945 17.665 17.5801C17.6813 17.5579 17.6924 17.5307 17.7119 17.5195C17.7881 17.4763 17.7893 17.4781 17.7744 17.3867C17.7725 17.3743 17.7769 17.3608 17.7793 17.3438C17.7492 17.3339 17.7182 17.3229 17.6895 17.3135C17.6625 17.2523 17.6875 17.1857 17.6572 17.126C17.6473 17.1059 17.6679 17.0701 17.6748 17.041C17.7349 17.063 17.7816 17.0526 17.8145 17.0107ZM17.6084 17.3877C17.618 17.4039 17.6298 17.4245 17.6328 17.4297C17.6213 17.4812 17.6141 17.5205 17.6035 17.5586C17.599 17.5749 17.5906 17.5964 17.5781 17.6025C17.5257 17.6283 17.4713 17.6527 17.3975 17.6377C17.4459 17.5795 17.4706 17.5241 17.4014 17.4668C17.4419 17.4369 17.4929 17.4188 17.4863 17.3594C17.4859 17.3536 17.4968 17.3425 17.5039 17.3408C17.5508 17.3311 17.5982 17.323 17.6631 17.3115C17.6396 17.3442 17.6255 17.364 17.6084 17.3877ZM12.8828 17.3926C12.8981 17.4037 12.9128 17.4201 12.9297 17.4238C12.9376 17.4253 12.9504 17.4032 12.9658 17.3867C12.9479 17.3724 12.9311 17.3525 12.9238 17.3555L12.8828 17.3926ZM11.9131 17.2188C11.8686 17.2523 11.8604 17.2899 11.8877 17.3311C11.8955 17.2963 11.902 17.2674 11.9131 17.2188ZM12.9795 17.1748C12.9699 17.1955 12.9659 17.219 12.9717 17.248C12.9958 17.2094 13.0199 17.1706 13.0439 17.1318C13.0365 17.1275 13.0289 17.1235 13.0215 17.1191L12.9795 17.1748ZM11.7969 16.9326C11.7755 16.9732 11.7539 17.0141 11.7324 17.0547C11.7268 17.0517 11.7214 17.048 11.7158 17.0449C11.737 17.004 11.7581 16.9628 11.7793 16.9219L11.7969 16.9326ZM17.291 13.9531C17.3449 13.9489 17.4029 13.9759 17.457 13.9941C17.5129 14.013 17.564 14.0407 17.5615 14.1104C17.5861 14.1135 17.6048 14.1166 17.6465 14.1221C17.614 14.1407 17.6001 14.1553 17.5879 14.1543C17.5465 14.1501 17.5051 14.1394 17.4639 14.1328C17.4496 14.1305 17.4328 14.129 17.4199 14.1338C17.3963 14.1427 17.3737 14.1608 17.3887 14.1885C17.395 14.1989 17.4224 14.2002 17.4404 14.2012C17.4512 14.2015 17.4625 14.1926 17.4707 14.1895C17.5013 14.2143 17.5297 14.2381 17.5625 14.2646C17.561 14.2752 17.5586 14.2943 17.5557 14.3135C17.696 14.327 17.697 14.3265 17.8086 14.2578C17.8272 14.2756 17.8473 14.2958 17.875 14.3223C17.8155 14.374 17.7632 14.4183 17.7119 14.4639C17.7033 14.4715 17.6919 14.4825 17.6914 14.4922C17.6894 14.5587 17.644 14.5759 17.5908 14.5918C17.554 14.6027 17.521 14.626 17.4795 14.6475C17.5081 14.677 17.5311 14.7013 17.5586 14.7295C17.5097 14.7532 17.4688 14.7733 17.4141 14.7998C17.4606 14.8281 17.4916 14.8471 17.5312 14.8711C17.4658 14.9102 17.3804 14.896 17.3506 14.9785C17.3814 14.9901 17.4118 15.0014 17.4443 15.0137C17.4251 15.1029 17.3287 15.0546 17.2871 15.1104C17.3784 15.1256 17.382 15.2056 17.4082 15.2705C17.3982 15.3332 17.2824 15.3136 17.3105 15.4004C17.2388 15.4373 17.1371 15.3733 17.0947 15.4883C17.1266 15.5054 17.1619 15.5249 17.1992 15.5449C17.161 15.5707 17.1238 15.5962 17.0811 15.625C17.0559 15.5943 17.0316 15.564 17 15.5254C16.9763 15.5511 16.9535 15.5757 16.917 15.6152C16.9649 15.6261 16.9956 15.6384 17.0264 15.6396C17.087 15.6421 17.1238 15.6684 17.1357 15.7324C17.0311 15.9091 16.8605 15.9778 16.666 16.0127C16.6294 16.0193 16.5936 16.0539 16.5654 16.083L16.4131 16.2578C16.3639 16.2431 16.3178 16.2332 16.2734 16.2666C16.2595 16.2767 16.2324 16.2716 16.2119 16.2705C16.1722 16.2686 16.1378 16.2921 16.1367 16.3232C16.1336 16.4103 16.0662 16.448 16.0156 16.4971C15.9835 16.5283 15.9552 16.5568 15.957 16.6045C15.9573 16.6104 15.9574 16.6186 15.9541 16.6221C15.8812 16.6947 15.8755 16.8036 15.8135 16.8818C15.8063 16.8909 15.7955 16.8972 15.7881 16.9033C15.7257 16.8918 15.7278 16.8397 15.7158 16.792H15.624C15.5943 16.7371 15.5491 16.6893 15.584 16.6172C15.5916 16.6013 15.5806 16.5683 15.5674 16.5518C15.5392 16.5165 15.5298 16.4817 15.5518 16.4424C15.5817 16.389 15.58 16.3386 15.5371 16.29C15.5919 16.228 15.6474 16.1678 15.5654 16.0918C15.5989 16.0393 15.6711 16.0105 15.6455 15.9482C15.7116 15.8964 15.7778 15.8569 15.8271 15.8027C15.8749 15.7502 15.8998 15.6806 15.8984 15.6055C15.8981 15.5887 15.9058 15.5712 15.9043 15.5547C15.9025 15.5356 15.8948 15.5169 15.8896 15.498C15.8677 15.5042 15.8405 15.5051 15.8252 15.5186C15.8147 15.528 15.8153 15.5582 15.8213 15.5752C15.8264 15.5892 15.846 15.5983 15.8535 15.6045C15.8278 15.6641 15.8047 15.7187 15.7822 15.7705C15.7574 15.745 15.7274 15.7149 15.6934 15.6797C15.6921 15.6846 15.6918 15.677 15.6953 15.6738C15.8071 15.582 15.8103 15.4385 15.8613 15.3184C15.8718 15.2935 15.8721 15.2642 15.8838 15.2402C15.9224 15.1612 15.9013 15.0816 15.877 15.0078C15.8563 14.9457 15.7925 14.9246 15.7305 14.9141C15.7007 14.909 15.6662 14.9148 15.6406 14.9023C15.6172 14.8907 15.5971 14.8622 15.5879 14.8369C15.5847 14.8273 15.6137 14.8007 15.6328 14.79C15.6604 14.7746 15.6921 14.7664 15.7334 14.751C15.6962 14.7207 15.6717 14.7 15.6396 14.6738C15.6851 14.6464 15.7315 14.6641 15.7871 14.6523C15.7478 14.6342 15.7188 14.6205 15.6885 14.6064C15.7251 14.5734 15.8691 14.4998 15.9072 14.4893C15.9576 14.4754 16.0199 14.4789 16.0361 14.4072C16.0387 14.3959 16.0632 14.384 16.0791 14.3818C16.1435 14.3731 16.1679 14.3371 16.1611 14.2744C16.1597 14.2606 16.1661 14.2458 16.1699 14.2275C16.1901 14.2246 16.2083 14.2189 16.2256 14.2197C16.3009 14.2231 16.3593 14.1901 16.4131 14.1416C16.4322 14.1243 16.4572 14.1064 16.4814 14.1025C16.5355 14.094 16.591 14.0939 16.6592 14.0898C16.6386 14.1377 16.6225 14.1754 16.6064 14.2129C16.6116 14.2158 16.6168 14.2188 16.6221 14.2217C16.6479 14.1859 16.6742 14.1492 16.7002 14.1133C16.7572 14.0969 16.7995 14.1218 16.8408 14.1748C16.8607 14.1505 16.8854 14.1338 16.8906 14.1123C16.9112 14.0287 16.9139 14.0242 16.9971 14.0391C17.0057 14.0406 17.0143 14.0445 17.0273 14.0488C17.0833 13.9337 17.1963 13.9605 17.291 13.9531ZM19.5146 16.7158C19.5229 16.797 19.5547 16.8425 19.6104 16.8516C19.5751 16.802 19.5481 16.7629 19.5146 16.7158ZM14.7285 16.6279C14.7228 16.6334 14.7175 16.6392 14.7119 16.6445C14.698 16.6294 14.6839 16.6138 14.6699 16.5986C14.6732 16.5951 14.6764 16.5914 14.6797 16.5879C14.6959 16.6013 14.7125 16.6146 14.7285 16.6279ZM17.2998 16.2871C17.3783 16.3281 17.3929 16.3896 17.3271 16.4502C17.2838 16.4901 17.2259 16.516 17.1719 16.542C17.137 16.5588 17.0968 16.5651 17.0547 16.5771C17.0226 16.5547 16.9874 16.53 16.9473 16.502C16.96 16.4814 16.9741 16.4602 16.9912 16.4326C16.9636 16.4149 16.9392 16.3995 16.9072 16.3789L16.9678 16.2871C17.0306 16.2877 17.0613 16.3636 17.125 16.335C17.1727 16.3135 17.2207 16.2928 17.2715 16.2705C17.2787 16.2748 17.2891 16.2815 17.2998 16.2871ZM12.9961 16.2275C12.8436 16.2819 12.8425 16.2829 12.8711 16.3789C12.9473 16.3621 12.9894 16.3158 12.9961 16.2275ZM13.0664 16.208C13.0244 16.2387 13.0712 16.2693 13.0732 16.3027C13.0869 16.2773 13.1002 16.2515 13.1211 16.2129C13.0961 16.2098 13.0757 16.2014 13.0664 16.208ZM13.8652 16.1396C13.8905 16.1602 13.9134 16.1605 13.9346 16.1416C13.9127 16.1319 13.8896 16.1315 13.8652 16.1396ZM20.2666 15.9531C20.2258 15.9166 20.2029 15.8939 20.2666 15.8613V15.9531ZM13.0898 15.7627C13.0646 15.7302 13.0356 15.7304 13.002 15.7725C12.9792 15.8009 12.9662 15.8373 12.9482 15.8711C12.9934 15.8885 13.0671 15.888 13.085 15.875L13.1035 15.8525C13.1163 15.8265 13.1116 15.7909 13.0898 15.7627ZM17.0078 15.7168C16.9168 15.7216 16.9167 15.7224 16.8936 15.832C16.9692 15.8002 17.0425 15.7865 17.0996 15.7168H17.0078ZM13.1592 15.7051C13.111 15.748 13.1288 15.7785 13.1631 15.8125C13.2009 15.7739 13.2117 15.7414 13.1592 15.7051ZM13.6807 15.5645C13.5638 15.5277 13.4711 15.5623 13.3672 15.625C13.4003 15.6423 13.4233 15.6618 13.4482 15.665C13.4858 15.6696 13.5109 15.6837 13.5273 15.7178C13.5361 15.7355 13.5524 15.75 13.5674 15.7686C13.6046 15.7014 13.6394 15.6387 13.6807 15.5645ZM20.6367 14.9844C20.599 15.019 20.5622 15.0563 20.5225 15.0889C20.4607 15.1394 20.4325 15.1987 20.4209 15.2822C20.4093 15.3661 20.4097 15.4553 20.375 15.5371C20.3677 15.5548 20.3859 15.589 20.4014 15.6084C20.4253 15.6386 20.4571 15.6632 20.4863 15.6904C20.4143 15.7448 20.3266 15.701 20.2471 15.5762C20.2623 15.5465 20.2793 15.5146 20.2988 15.4766C20.2639 15.4414 20.2706 15.4004 20.292 15.3564L20.3018 15.291C20.3036 15.2765 20.3029 15.2611 20.3066 15.2471C20.3165 15.2101 20.3284 15.1734 20.3398 15.1367C20.3558 15.0852 20.3673 15.0382 20.4355 15.0205C20.4859 15.0076 20.5281 14.9613 20.582 14.9238C20.5976 14.9413 20.6157 14.9609 20.6367 14.9844ZM14.125 15.5117C14.1135 15.527 14.1014 15.5422 14.0898 15.5576C14.0807 15.5494 14.0716 15.5414 14.0625 15.5332C14.0766 15.5205 14.0914 15.5079 14.1055 15.4951C14.1119 15.5006 14.1186 15.5062 14.125 15.5117ZM21.2764 15.4287C21.3048 15.457 21.3412 15.462 21.3408 15.502H21.3438L21.3408 15.5049V15.502C21.3184 15.5004 21.2953 15.4988 21.2686 15.4971C21.271 15.4757 21.2729 15.4587 21.2764 15.4287ZM14.9414 15.4258C14.9495 15.4295 14.9577 15.4338 14.9658 15.4375C14.972 15.4185 14.9781 15.3989 14.9844 15.3799C14.9803 15.3781 14.9757 15.3769 14.9717 15.375C14.9617 15.392 14.9514 15.4088 14.9414 15.4258ZM14.5361 15.0742C14.5676 15.0152 14.5796 15.0157 14.6426 15.0645L14.5625 15.1455C14.5342 15.1702 14.5029 15.1921 14.4648 15.209C14.4134 15.2318 14.3635 15.2592 14.3086 15.2754C14.269 15.287 14.2442 15.2736 14.2275 15.2324C14.2981 15.1644 14.3094 15.0334 14.4443 15.0293C14.4245 15.0784 14.4044 15.1267 14.3809 15.1846C14.4679 15.1809 14.5046 15.1333 14.5361 15.0742ZM17.3457 15.1982C17.3135 15.2036 17.2764 15.2089 17.2627 15.2637C17.3052 15.2562 17.3384 15.2506 17.3857 15.2422C17.3654 15.2195 17.3536 15.1975 17.3457 15.1982ZM18.8135 14.5869C18.8542 14.5909 18.8962 14.5573 18.916 14.624C18.9196 14.633 18.954 14.6412 18.9688 14.6357C18.99 14.6276 19.0067 14.6057 19.0322 14.584C19.0558 14.6026 19.0803 14.6229 19.1064 14.6436C19.0804 14.6777 19.0585 14.7068 19.0361 14.7363C18.9884 14.7326 18.9421 14.729 18.8857 14.7246C18.8964 14.8419 18.9692 14.8948 19.0361 14.957C19.0242 14.9705 19.0125 14.9831 19.002 14.9951C18.9464 14.9593 18.907 14.914 18.8848 14.8584C18.8291 14.8682 18.8719 14.9724 18.7852 14.9492C18.8081 15.0037 18.806 15.0456 18.748 15.0781C18.7241 15.0528 18.6982 15.0252 18.6699 14.9951C18.6766 14.9814 18.6828 14.9681 18.6895 14.9551C18.7184 14.8981 18.7179 14.8985 18.6562 14.8838C18.6378 14.8794 18.6161 14.8676 18.6055 14.8525C18.5745 14.8083 18.5477 14.7599 18.5156 14.707C18.5364 14.6985 18.5534 14.6861 18.5615 14.6895C18.624 14.7218 18.6655 14.6904 18.7041 14.6465C18.7097 14.6401 18.7184 14.6364 18.7305 14.6279C18.7438 14.6695 18.7574 14.7088 18.7725 14.7559C18.8038 14.7331 18.8265 14.7174 18.8555 14.6963C18.8437 14.6654 18.8306 14.6318 18.8135 14.5869ZM14.8223 14.8398C14.9444 14.8322 15.0624 14.8598 15.1807 14.8848C15.1344 15.006 15.0456 15.0316 14.9365 15.0234C14.8717 15.0185 14.8076 14.9967 14.7383 14.9814C14.7583 14.9423 14.8028 14.9199 14.8184 14.8828L14.8223 14.8398ZM22.9893 14.9609C22.9871 14.9665 22.9846 14.972 22.9824 14.9775H22.8604C22.8713 14.9493 22.8802 14.9238 22.8945 14.8867C22.9347 14.9182 22.9622 14.9398 22.9893 14.9609ZM14.873 14.7588C14.8559 14.7852 14.8384 14.8116 14.8213 14.8379H14.8223V14.8398H14.8193L14.8213 14.8379C14.8001 14.8476 14.7865 14.8837 14.748 14.8525C14.7853 14.8167 14.8213 14.7819 14.8574 14.7471L14.873 14.7588ZM14.583 14.7236C14.622 14.763 14.6631 14.7642 14.7109 14.7314V14.7324C14.681 14.7789 14.678 14.8446 14.6133 14.8584C14.5988 14.8126 14.5849 14.7697 14.5703 14.7236C14.5721 14.7234 14.5802 14.7208 14.583 14.7236ZM16.041 13.8936C16.1098 13.9304 16.1846 13.9618 16.2695 13.9258C16.2814 13.9207 16.3056 13.9322 16.3184 13.9424C16.3603 13.9758 16.3999 14.0124 16.4482 14.0547C16.4111 14.0712 16.3749 14.093 16.3359 14.1035C16.2359 14.1301 16.1535 14.1846 16.0791 14.2539C16.0747 14.258 16.0715 14.2643 16.0664 14.2666C15.9829 14.3038 15.893 14.3289 15.8232 14.3945C15.8114 14.4047 15.7771 14.3912 15.751 14.3887C15.751 14.4071 15.7572 14.4287 15.75 14.4443C15.7433 14.4587 15.7231 14.4696 15.707 14.4766C15.6738 14.4908 15.6371 14.4977 15.6055 14.5146C15.5773 14.5299 15.5457 14.5501 15.5293 14.5762C15.4754 14.6618 15.4002 14.7027 15.3027 14.6885C15.2733 14.6842 15.2441 14.6775 15.2148 14.6719L15.3838 14.7432C15.3238 14.7918 15.2698 14.8252 15.1924 14.7988C15.1307 14.7776 15.0647 14.7671 15 14.752C15.0109 14.6844 15.0605 14.7015 15.0967 14.6895C15.1266 14.6795 15.1543 14.6634 15.1846 14.665L15.2158 14.6738L15.2148 14.6729L15.2129 14.6719H15.2139C15.1966 14.6531 15.1797 14.6336 15.1602 14.6123C15.1878 14.5781 15.2139 14.5462 15.2402 14.5137C15.2033 14.5061 15.1672 14.5054 15.1396 14.4902C15.1126 14.4753 15.0936 14.445 15.0723 14.4229C15.1072 14.3786 15.1389 14.339 15.1699 14.2988C15.1747 14.2926 15.182 14.2811 15.1797 14.2773C15.1405 14.2163 15.1975 14.2137 15.2285 14.1982C15.2581 14.1835 15.2899 14.1733 15.3232 14.1602C15.341 14.1767 15.3625 14.1969 15.3818 14.2148C15.3906 14.251 15.3475 14.2897 15.3955 14.3203C15.4414 14.245 15.5673 14.2772 15.5938 14.1709C15.5589 14.1079 15.5226 14.1831 15.4873 14.1719C15.4598 14.1454 15.4606 14.1175 15.4854 14.0918C15.5041 14.0723 15.5257 14.055 15.5479 14.0391C15.5792 14.0165 15.6103 14.0018 15.6445 14.0391C15.6542 14.0496 15.6785 14.0547 15.6924 14.0508C15.7041 14.047 15.7255 14.028 15.6943 14.0137C15.7204 14.001 15.7553 13.9714 15.7705 13.9795C15.8208 14.0059 15.8536 13.9658 15.8926 13.957C15.9332 13.9478 15.9709 13.9243 16.0098 13.9072C16.018 13.9036 16.0262 13.8995 16.041 13.8936ZM14.5049 14.7451L14.3369 14.7959C14.3039 14.7753 14.3097 14.7497 14.3311 14.7217C14.3573 14.6873 14.4477 14.6388 14.5107 14.627C14.5089 14.6651 14.507 14.7026 14.5049 14.7451ZM14.418 14.5195C14.3808 14.5489 14.3454 14.5771 14.3096 14.6055C14.321 14.6174 14.3391 14.6303 14.3379 14.6357C14.3245 14.6705 14.307 14.7039 14.29 14.7373C14.2621 14.7922 14.2485 14.7948 14.1758 14.7549C14.2072 14.7082 14.2388 14.662 14.2734 14.6104C14.2168 14.6279 14.1644 14.6441 14.1123 14.6602C14.1579 14.6078 14.1902 14.545 14.2715 14.5488L14.3145 14.5312C14.3297 14.5208 14.3462 14.5077 14.3643 14.4971C14.3818 14.5043 14.3997 14.5121 14.418 14.5195ZM21.6406 14.668C21.5911 14.7002 21.5628 14.7183 21.5156 14.749C21.5198 14.6915 21.523 14.6576 21.5264 14.6104C21.5654 14.6302 21.5933 14.6439 21.6406 14.668ZM21.1338 14.374C21.1666 14.3876 21.1896 14.4154 21.2129 14.4424C21.2472 14.4821 21.2727 14.5341 21.3418 14.5215C21.3553 14.519 21.3786 14.5423 21.3896 14.5586C21.4095 14.5882 21.4238 14.6215 21.4404 14.6533C21.4378 14.659 21.4353 14.6652 21.4326 14.6709C21.398 14.6381 21.3633 14.6259 21.335 14.6787C21.3112 14.6291 21.2931 14.5916 21.2734 14.5508C21.2462 14.5594 21.224 14.5663 21.2021 14.5732C21.1224 14.5278 21.0755 14.4656 21.0967 14.3652L21.1338 14.374ZM19.9502 14.5029C19.9577 14.5067 19.9596 14.5237 19.9639 14.5342C19.9513 14.5381 19.9336 14.5485 19.9268 14.5439C19.9028 14.5277 19.882 14.5059 19.8604 14.4863C19.8634 14.4816 19.8672 14.4773 19.8701 14.4727L19.9502 14.5029ZM15.001 14.5195C14.996 14.5231 14.9905 14.5267 14.9854 14.5303C14.9443 14.4936 14.9026 14.4574 14.8564 14.416C14.8715 14.3995 14.8867 14.3827 14.9072 14.3604L15.001 14.5195ZM20.124 14.4326C20.1431 14.4515 20.1688 14.4704 20.1455 14.5C20.1398 14.5072 20.1127 14.5092 20.1064 14.5029C20.082 14.4784 20.0617 14.4495 20.1074 14.4238C20.1134 14.4266 20.12 14.4286 20.124 14.4326ZM15.29 14.4502C15.2734 14.4656 15.2756 14.4823 15.2861 14.499C15.2893 14.5039 15.3067 14.4998 15.3174 14.5C15.3163 14.4807 15.3158 14.4612 15.3145 14.4355L15.29 14.4502ZM14.6807 14.3584C14.6426 14.4386 14.6386 14.4415 14.5664 14.4463C14.5832 14.3881 14.625 14.3676 14.6807 14.3584ZM17.5352 14.3008C17.5165 14.2911 17.4967 14.294 17.4863 14.3135C17.4662 14.351 17.4571 14.3957 17.4854 14.4424C17.5433 14.4139 17.5462 14.3632 17.5527 14.3145L17.5352 14.3008ZM20.0234 14.3369C20.0215 14.3428 20.0196 14.3486 20.0176 14.3545C20.0023 14.3492 19.9869 14.3442 19.9717 14.3389C19.9738 14.3324 19.9764 14.3258 19.9785 14.3193C19.9936 14.3249 20.0084 14.3312 20.0234 14.3369ZM15.5557 14.2559C15.6417 14.2903 15.6863 14.2739 15.7422 14.1797C15.6839 14.2037 15.6251 14.2273 15.5557 14.2559ZM25.9775 7.67383C25.6658 7.43498 25.3242 7.41916 25.1152 7.69141C24.9333 7.92882 24.9792 8.1772 25.1523 8.49023L25.2158 8.60449C25.3388 8.82009 25.3537 8.94637 25.2432 9.09082C25.1118 9.26222 24.9069 9.26304 24.6963 9.10156C24.6098 9.03517 24.5513 8.97424 24.5049 8.88965L24.6729 8.49121L24.5576 8.40234L24.2822 8.73535C24.3409 8.89828 24.4819 9.08248 24.6533 9.21387C25.0104 9.48742 25.361 9.47043 25.5684 9.2002C25.7179 9.0051 25.7247 8.81988 25.5869 8.53125L25.5186 8.40137L25.4492 8.27832C25.3471 8.09512 25.324 7.95018 25.4346 7.80566C25.5596 7.64261 25.7548 7.64804 25.9365 7.78711C25.9965 7.83296 26.0383 7.87734 26.0684 7.93652L25.9111 8.32129L26.0264 8.41016L26.29 8.09668C26.2364 7.94415 26.1387 7.79725 25.9775 7.67383ZM11.3096 6.82617L11.3623 6.90332L11.5898 6.78906L12.0732 8.14062L10.9541 7.21875L11.1689 7.03516L11.1162 6.95703L10.4453 7.41504L10.498 7.49219L10.7305 7.37109L11.168 8.74512L10.0869 7.80371L10.2803 7.63965L10.2275 7.5625L9.54199 8.03027L9.59473 8.10742L9.77148 8.01172L11.2393 9.22266L11.3955 9.11523L10.9287 7.63574L12.1484 8.60254L12.3037 8.49707L11.7012 6.71289L11.8848 6.54688L11.832 6.46973L11.3096 6.82617ZM21.1357 5.41797L21.3828 5.54004L20.8154 7.12207L20.5449 7.06055L20.5146 7.14648L21.1523 7.37109L21.1826 7.28516L20.9355 7.16504L21.2109 6.38184C21.2472 6.2787 21.3567 5.95011 21.4355 5.70215L21.499 7.49219L21.6191 7.53516L22.7744 6.16211L22.498 6.93359C22.4182 7.14527 22.3368 7.39237 22.2441 7.63281L22.0098 7.5752L21.9805 7.66113L22.79 7.94629L22.8203 7.86035L22.5928 7.75488C22.6766 7.50866 22.7635 7.26054 22.8506 7.0127L22.8926 6.89258C22.9787 6.64715 23.0657 6.39924 23.1553 6.15234L23.3994 6.21289L23.4307 6.125L22.8408 5.91797L21.8242 7.11523L21.7656 5.54004L21.167 5.3291L21.1357 5.41797ZM14.2676 5.53418L14.2021 7.44434L13.9951 7.53613L14.0205 7.62305L14.6055 7.4541L14.5801 7.36719L14.3271 7.4082L14.335 6.88281L14.9326 6.70996L15.2305 7.14941L14.9951 7.24707L15.0205 7.33496L15.8281 7.10156L15.8027 7.01367L15.5889 7.05176L14.4854 5.47168L14.2676 5.53418ZM18.3779 4.95703C17.8213 4.94815 17.3554 5.30204 17.3447 5.95215C17.3343 6.59985 17.7575 6.97397 18.335 6.9834C18.5046 6.98618 18.6528 6.95791 18.7871 6.90527L18.917 6.84473L18.9219 6.39648L18.7715 6.39453L18.6494 6.83203C18.5629 6.86452 18.482 6.87939 18.3936 6.87793C18.0034 6.87144 17.7225 6.57466 17.7324 5.96094C17.7425 5.35258 18.0381 5.0585 18.4229 5.06445C18.506 5.06575 18.5814 5.08004 18.6562 5.1123L18.7637 5.55859L18.9121 5.56152L18.9248 5.11133C18.7521 5.00953 18.5835 4.96045 18.3779 4.95703ZM14.876 6.62598L14.3359 6.78223L14.3535 5.84863L14.876 6.62598Z" fill="white" style="fill:white;fill-opacity:1;"/>
<path d="M2.62964 11.6157L2.59435 11.7942L3.73656 12.5841L3.69152 12.7146L2.54443 12.6802L3.47247 13.3495L3.42678 13.4819L2.02585 13.4126L1.96308 13.5472L1.89771 13.5246L2.0974 12.946L2.16277 12.9686L2.12016 13.1508L3.17456 13.2305L2.31026 12.6115L2.22586 12.7854L2.16049 12.7628L2.35579 12.1969L2.42116 12.2195L2.37531 12.4229L3.44337 12.4748L2.56183 11.8886L2.47759 12.0564L2.41222 12.0338L2.56427 11.5931L2.62964 11.6157Z" fill="white" style="fill:white;fill-opacity:1;"/>
<path d="M4.18217 10.3775C3.88719 10.2015 3.83921 9.89599 3.9828 9.65532C4.12526 9.41627 4.41634 9.31057 4.71295 9.4875C5.00956 9.66443 5.06761 9.96039 4.91736 10.2126C4.76498 10.4681 4.47732 10.5534 4.18233 10.3775H4.18217ZM4.57603 9.72085C4.30413 9.55873 4.12347 9.55824 4.04378 9.69174C3.96215 9.8285 4.05045 9.98397 4.32235 10.1461C4.59586 10.3092 4.77458 10.3131 4.85621 10.1762C4.93589 10.0427 4.84954 9.88396 4.57586 9.72085H4.57603Z" fill="white" style="fill:white;fill-opacity:1;"/>
<path d="M5.90915 7.48296C5.81061 7.31562 5.81841 7.15187 5.89403 7.06503C5.94704 7.00421 6.01697 6.97364 6.10006 7.0156C6.16137 7.07674 6.18235 7.14325 6.12299 7.21122C6.08136 7.25903 6.02737 7.26538 5.95387 7.26505L5.92265 7.26586C5.91745 7.36815 5.94704 7.46279 6.02184 7.58134L6.15064 7.69354C6.22869 7.76168 6.34724 7.86234 6.43082 7.93275L6.56417 7.81485L6.60905 7.85388L6.2295 8.28937L6.18462 8.25034L6.26365 8.13342C6.18251 8.06008 6.06364 7.95405 5.98412 7.88462L5.88004 7.79388C5.78605 7.71192 5.73271 7.66801 5.65954 7.61175L5.54831 7.71598L5.51221 7.68444L5.66604 7.32977L5.69678 7.32083L5.90915 7.48312V7.48296Z" fill="white" style="fill:white;fill-opacity:1;"/>
<path d="M8.42117 6.04903L8.45922 6.09472L8.0317 6.45085L7.99365 6.40516L8.0961 6.29734C8.02162 6.20205 7.93836 6.09911 7.86096 6.0061L7.2383 5.25855L7.11146 5.34913L7.07715 5.30783L7.32075 4.99756L7.35246 4.99365L7.5419 5.23302L8.05284 5.84641C8.13025 5.93926 8.21643 6.03976 8.29807 6.13164L8.42149 6.04887L8.42117 6.04903Z" fill="white" style="fill:white;fill-opacity:1;"/>
<path d="M10.8733 4.43047L10.9031 4.48201L10.586 4.68886L10.5102 4.58414C10.4878 4.69894 10.4278 4.79098 10.3214 4.85229C10.1035 4.97767 9.83911 4.89522 9.67438 4.60918C9.50103 4.30818 9.57225 4.02799 9.80008 3.89692C9.89147 3.84424 9.99148 3.83318 10.1066 3.87546L9.85764 3.44306L9.70787 3.5138L9.68104 3.46729L9.97587 3.20239L10.0077 3.20402L10.1541 3.46957L10.7429 4.49226L10.8733 4.43047ZM10.1279 3.93189C10.0463 3.91693 9.98513 3.92993 9.93358 3.95969C9.80219 4.03531 9.74446 4.19256 9.90139 4.46543C10.0536 4.72984 10.2134 4.77293 10.3515 4.69341C10.4113 4.65894 10.4507 4.61194 10.4744 4.53405L10.1277 3.93205L10.1279 3.93189Z" fill="white" style="fill:white;fill-opacity:1;"/>
<path d="M13.7697 3.25444L13.7911 3.31802L13.2038 3.5156L13.1823 3.45202L13.3519 3.37266L13.1185 3.05849L12.6839 3.20468L12.6946 3.5917L12.8802 3.55349L12.9016 3.61707L12.4761 3.76017L12.4546 3.69659L12.6037 3.62211L12.5912 2.21321L12.7494 2.16003L13.6131 3.28859L13.7695 3.25411L13.7697 3.25444ZM13.0743 2.99848L12.6644 2.44201L12.6814 3.13069L13.0743 2.99848Z" fill="white" style="fill:white;fill-opacity:1;"/>
<path d="M16.6189 2.72345C16.5058 2.80752 16.374 2.86509 16.2083 2.88639C15.7858 2.94054 15.4373 2.71239 15.3765 2.23853C15.3155 1.76272 15.6184 1.45488 16.0258 1.40268C16.1762 1.38333 16.3044 1.40187 16.4411 1.45781L16.4795 1.7876L16.371 1.80142L16.2457 1.48659C16.1876 1.47082 16.1312 1.46838 16.0702 1.47619C15.7885 1.51229 15.6033 1.75849 15.6604 2.20389C15.718 2.65304 15.9547 2.83939 16.2401 2.8028C16.3048 2.79451 16.3624 2.77549 16.4221 2.7428L16.4647 2.41041L16.5751 2.39627L16.619 2.72345H16.6189Z" fill="white" style="fill:white;fill-opacity:1;"/>
<path d="M20.1278 1.52991C20.1093 1.72277 20.0927 1.91596 20.0762 2.1072L20.0681 2.20086C20.0515 2.39389 20.0349 2.58708 20.0203 2.77848L20.2024 2.81149L20.1967 2.87832L19.5658 2.82401L19.5715 2.75701L19.7489 2.7549C19.7709 2.5661 19.7835 2.37454 19.8018 2.20867L19.8574 1.60683L19.2848 2.79978L19.1911 2.79165L18.8168 1.52487C18.8061 1.7166 18.788 1.97109 18.7812 2.05142L18.7287 2.66123L18.9274 2.7014L18.9217 2.76823L18.4246 2.72546L18.4303 2.65846L18.6348 2.65294L18.7488 1.41852L18.5503 1.3764L18.5561 1.30762L19.0227 1.34778L19.3542 2.46251L19.86 1.41982L20.3189 1.45934L20.313 1.52812L20.128 1.52959L20.1278 1.52991Z" fill="white" style="fill:white;fill-opacity:1;"/>
<path d="M22.785 2.64331C23.021 2.84349 23.0865 2.98383 23.0262 3.18206C22.953 3.42256 22.7154 3.52469 22.3979 3.42809C22.2455 3.38175 22.1004 3.2915 22.0178 3.19409L22.1216 2.89276L22.2243 2.92398L22.2115 3.24304C22.2655 3.28954 22.3214 3.31654 22.3985 3.34012C22.5857 3.39703 22.7263 3.34353 22.7727 3.19132C22.8117 3.06286 22.7689 2.9796 22.6281 2.86252L22.5548 2.80007C22.3543 2.62867 22.2583 2.46915 22.3226 2.25807C22.3962 2.01578 22.6364 1.93837 22.9137 2.02277C23.0568 2.06635 23.162 2.14245 23.2386 2.23384L23.1381 2.5181L23.0353 2.48687L23.0443 2.18067C23.0082 2.14766 22.9681 2.12749 22.915 2.11123C22.7535 2.06212 22.6169 2.10879 22.5728 2.25385C22.5338 2.38231 22.5871 2.47679 22.7052 2.57696L22.7852 2.64347L22.785 2.64331Z" fill="white" style="fill:white;fill-opacity:1;"/>
<path d="M25.6271 4.70788L25.6002 4.75878L25.2643 4.60608L25.3417 4.42997C25.2057 4.49079 25.0527 4.50575 24.927 4.43973C24.7639 4.35403 24.7093 4.21044 24.8465 3.95741L25.1121 3.46842L24.9971 3.37768L25.0221 3.3302L25.3817 3.46273L25.3906 3.49119L25.2376 3.75755L25.0646 4.08718C24.986 4.23662 25.0129 4.31354 25.1062 4.36265C25.1827 4.40281 25.2736 4.40298 25.3695 4.37305L25.6905 3.77008L25.5815 3.6847L25.6048 3.64047L25.9577 3.7652L25.9665 3.79365L25.8186 4.06278L25.518 4.63519L25.6272 4.70772L25.6271 4.70788Z" fill="white" style="fill:white;fill-opacity:1;"/>
<path d="M28.5301 6.84487L28.4919 6.89041L28.0948 6.55769L28.133 6.51216L28.2456 6.58404C28.3173 6.50143 28.4186 6.38353 28.4888 6.29979L28.6393 6.12042C28.755 5.9822 28.7515 5.90902 28.6749 5.84479C28.6131 5.79308 28.5254 5.7721 28.4023 5.78169C28.3857 5.81031 28.3638 5.83958 28.3392 5.86902L28.1888 6.04838C28.1186 6.13213 28.019 6.25409 27.9517 6.34028L28.0374 6.43216L27.9992 6.47769L27.6006 6.14367L27.6388 6.09814L27.7558 6.1736C27.8275 6.09099 27.9288 5.97309 27.999 5.88934L28.1482 5.71144C28.2604 5.57761 28.263 5.49972 28.1851 5.43435C28.1262 5.38507 28.0322 5.36881 27.9172 5.37759L27.699 5.63794C27.6312 5.71876 27.5292 5.84365 27.4605 5.9287L27.5462 6.02058L27.5079 6.06611L27.105 5.72835L27.1432 5.68282L27.2616 5.75958C27.3333 5.67697 27.437 5.55614 27.5049 5.47533L27.5936 5.36946C27.6749 5.27238 27.7193 5.21953 27.7714 5.14538L27.665 5.03626L27.6959 4.99951L28.0535 5.14652L28.0629 5.17709L27.9623 5.31808C28.1301 5.29108 28.2576 5.31515 28.3576 5.39906C28.4635 5.48785 28.4919 5.5942 28.4339 5.72331C28.6217 5.69047 28.7445 5.72331 28.8416 5.80446C28.9931 5.93146 28.9928 6.08399 28.8264 6.28255L28.6786 6.45899C28.6084 6.54273 28.5088 6.6647 28.4401 6.74974L28.5301 6.84536V6.84487Z" fill="white" style="fill:white;fill-opacity:1;"/>
<path d="M30.8383 9.60022L30.7906 9.63567L30.4813 9.22002L30.529 9.18457L30.6218 9.28052C30.7108 9.21677 30.8366 9.12554 30.9243 9.06017L31.1121 8.92049C31.2568 8.81283 31.2702 8.74063 31.2105 8.66063C31.1624 8.59591 31.0819 8.55541 30.9599 8.53606C30.9371 8.56013 30.909 8.58355 30.8783 8.60631L30.6905 8.74616C30.6026 8.81153 30.4776 8.90699 30.3922 8.97529L30.4543 9.08457L30.4067 9.12002L30.0963 8.70291L30.1439 8.66746L30.2402 8.76795C30.3291 8.70421 30.455 8.61298 30.5426 8.54761L30.729 8.40906C30.869 8.30482 30.8897 8.22969 30.829 8.14806C30.7831 8.08643 30.6955 8.04887 30.5815 8.03082L30.309 8.2336C30.2242 8.29669 30.0961 8.39442 30.0096 8.46126L30.0717 8.57054L30.0241 8.60599L29.7102 8.18416L29.7579 8.14871L29.8554 8.25083C29.9444 8.18709 30.0732 8.09359 30.1579 8.03049L30.2688 7.94804C30.3704 7.87243 30.4259 7.83112 30.4935 7.77112L30.4153 7.64038L30.4538 7.61176L30.7677 7.83747L30.7698 7.86934L30.6392 7.98317C30.8088 7.99569 30.9272 8.0487 31.0051 8.15343C31.0876 8.26433 31.0906 8.37442 31.0043 8.48663C31.1946 8.49801 31.3064 8.55834 31.3821 8.65998C31.5001 8.81853 31.4645 8.96699 31.2567 9.12164L31.0719 9.25905C30.9841 9.32442 30.8591 9.41988 30.7726 9.48671L30.8381 9.60054L30.8383 9.60022Z" fill="white" style="fill:white;fill-opacity:1;"/>
<path d="M31.9421 11.652L31.8884 11.6777L31.6609 11.2016L31.7146 11.1759L31.7905 11.2948C31.89 11.2494 32.0346 11.1824 32.1297 11.137L32.2526 11.0783C32.3634 11.0255 32.4284 10.9923 32.5133 10.9474L32.4601 10.8006L32.507 10.7783L32.7735 11.0827L32.7694 11.1144L32.4977 11.24L32.238 11.3641C32.1427 11.4096 31.9982 11.4808 31.9003 11.5296L31.9417 11.6522L31.9421 11.652ZM32.9833 10.6933C33.0612 10.656 33.143 10.6936 33.1784 10.7681C33.214 10.8425 33.1918 10.9297 33.1139 10.9669C33.0394 11.0026 32.956 10.9658 32.9203 10.8913C32.8847 10.8169 32.9086 10.7289 32.9831 10.6933H32.9833Z" fill="white" style="fill:white;fill-opacity:1;"/>
<path d="M32.8302 13.9724C32.7317 13.9436 32.6582 13.8714 32.6209 13.7464C32.5707 13.5771 32.6256 13.4587 32.8131 13.4031C32.872 13.3855 32.924 13.3722 32.9977 13.3503L33.4795 13.2072L33.4325 13.0489L33.4932 13.0309L33.5625 13.1964L33.8747 13.1898L33.9217 13.348L33.6295 13.4288L33.7017 13.6716L33.6244 13.6945L33.5517 13.4499L32.8712 13.6521C32.7682 13.6826 32.7395 13.7412 32.7614 13.8149C32.7756 13.8627 32.8039 13.8903 32.8554 13.929L32.8304 13.9724H32.8302Z" fill="white" style="fill:white;fill-opacity:1;"/>
<path d="M2.43943 23.59L3.273 23.2822L3.11249 22.8477L1.93125 23.2838L2.56399 24.9971L2.31958 25.0874L1.5896 23.1106L3.01509 22.5842L2.87475 22.204L3.1164 22.1147L3.25673 22.4949L3.84589 22.2774L3.94313 22.5408L3.35398 22.7584L3.51448 23.1929L4.16071 22.9543L4.25389 23.2069L3.60766 23.4456L3.77515 23.899L4.39147 23.6713L4.48871 23.9347L3.8724 24.1624L4.01371 24.5452L3.77206 24.6345L3.63075 24.2517L2.79718 24.5595L2.43927 23.5902L2.43943 23.59ZM3.36634 23.5347L2.76629 23.7564L2.93378 24.2099L3.53383 23.9882L3.36634 23.5347Z" fill="white" style="fill:white;fill-opacity:1;"/>
<path d="M6.12299 28.6614C6.10478 28.9536 6.1843 29.3033 6.33147 29.6072C6.25016 29.5963 6.11828 29.6017 6.03908 29.6157C5.96217 29.4306 5.91322 29.2293 5.88883 29.0301L5.15722 29.6487L4.97785 29.4364L5.74475 28.7879L5.88297 28.9515C5.87126 28.7718 5.88265 28.5879 5.92103 28.4227L5.72101 28.1863C5.55205 28.1926 5.36878 28.1733 5.19169 28.1297L5.34683 28.3131L5.20535 28.4328C4.99542 28.6104 4.68092 28.7853 4.14478 28.492C4.1773 28.4229 4.19454 28.2908 4.19502 28.2107C4.64319 28.476 4.8798 28.3481 5.03445 28.2172L5.14941 28.1199C4.9385 28.0633 4.73409 27.9784 4.54985 27.8726C4.57668 27.7968 4.6014 27.6735 4.60416 27.5916C4.87264 27.7701 5.21267 27.9033 5.50798 27.9342L5.16974 27.5342L6.07144 26.7717L7.36473 28.3011L6.46302 29.0636L6.12283 28.6613L6.12299 28.6614ZM5.50977 27.5956L5.8911 28.0466L6.09665 27.8727L5.71532 27.4218L5.50977 27.5956ZM5.87435 27.2872L6.25569 27.7381L6.45684 27.568L6.07551 27.1171L5.87435 27.2872ZM6.65719 28.5356L6.27211 28.0802L6.06657 28.2541L6.45164 28.7094L6.65719 28.5356ZM7.01754 28.231L6.63247 27.7757L6.43131 27.9458L6.81639 28.4011L7.01754 28.231Z" fill="white" style="fill:white;fill-opacity:1;"/>
<path d="M9.05672 32.2374C9.0925 32.2914 9.12307 32.3658 9.18129 32.4561C9.29528 32.6353 9.50327 32.7786 9.77418 32.9345C10.0475 33.0919 10.4339 33.2911 10.6921 33.3998C10.6313 33.4416 10.538 33.5281 10.4968 33.5879C10.3165 33.5007 9.88655 33.2731 9.64816 33.1358C9.35464 32.9669 9.15625 32.8126 9.03168 32.6171C8.9585 32.4948 8.91622 32.3769 8.8585 32.3436C8.77329 32.2945 8.56579 32.3587 8.35764 32.4359L8.32837 32.1619C8.51668 32.1133 8.69848 32.0878 8.83475 32.1062L9.25658 31.3737L8.93297 31.1874L9.05721 30.9716L9.60409 31.2866L9.05656 32.2372L9.05672 32.2374ZM10.4081 31.4858C10.4564 31.4368 10.5115 31.3817 10.5586 31.3287L9.92899 30.9661L10.0388 30.7755L10.4225 30.9965C10.4318 30.9049 10.4308 30.7675 10.4175 30.6629L10.6593 30.6953C10.6783 30.8132 10.6895 30.9734 10.6764 31.0659L10.5152 31.05L10.9492 31.2999C11.0654 31.2432 11.2119 31.1571 11.3054 31.0875L11.495 31.2802C11.3881 31.3323 11.2785 31.3893 11.18 31.4328L11.6189 31.6856L11.5091 31.8762L10.8118 31.4746C10.7466 31.5238 10.6855 31.5721 10.6261 31.6115L11.2081 31.9466L10.5263 33.1306L9.31479 32.4328L9.99664 31.2488L10.4081 31.4858ZM9.57596 30.9296C9.57222 30.7738 9.5218 30.5076 9.46505 30.3045L9.71206 30.2932C9.77321 30.4886 9.83289 30.7503 9.83923 30.9075L9.57596 30.9296ZM10.4965 32.649L9.73402 32.2097L9.63141 32.3878L10.3939 32.827L10.4965 32.649ZM10.6886 32.3154L9.92607 31.8762L9.82492 32.0518L10.5874 32.4911L10.6886 32.3154ZM10.8793 31.9844L10.1168 31.5451L10.0157 31.7208L10.7782 32.16L10.8793 31.9844Z" fill="white" style="fill:white;fill-opacity:1;"/>
<path d="M14.4638 34.0118C14.5682 33.986 14.6783 33.9611 14.7822 33.938L14.8014 34.1822C14.4767 34.2756 14.1258 34.3671 13.8526 34.4341L13.7961 34.151C13.9053 34.1318 14.0454 34.1034 14.198 34.0712L14.3474 33.2129L13.9966 33.1518L14.0404 32.9008L14.3912 32.962L14.5014 32.3289L14.7496 32.3722L14.6393 33.0052L14.9558 33.0604L14.912 33.3113L14.5956 33.2562L14.4638 34.0118ZM15.937 34.9324C16.0937 34.9597 16.1352 34.8906 16.2121 34.5837C16.2645 34.6369 16.3598 34.6976 16.4286 34.7242C16.3229 35.1113 16.2207 35.2258 15.91 35.1716L15.2569 35.0578C14.9062 34.9966 14.8218 34.8909 14.8814 34.5488L15.025 33.7246L14.8133 33.7759L14.7548 33.5219L15.0732 33.448L15.2049 32.6924L15.4558 32.7361L15.3426 33.3862L15.6854 33.3079L15.822 32.5237L16.0702 32.567L15.9519 33.2456L16.2856 33.1685L16.3438 33.1374L16.3959 33.1083L16.5687 33.2119L16.5494 33.2555C16.4565 33.7887 16.3832 34.1756 16.3468 34.2837C16.3116 34.401 16.2523 34.4553 16.1599 34.4628C16.078 34.4779 15.9635 34.4608 15.8807 34.4465C15.8841 34.3766 15.8786 34.2728 15.8601 34.2107C15.9194 34.224 15.9965 34.2374 16.025 34.2424C16.062 34.2489 16.0897 34.2419 16.1115 34.184C16.1323 34.1318 16.1842 33.8676 16.2603 33.4313L15.9046 33.5162L15.7262 34.5398L15.4781 34.4966L15.6381 33.5785L15.2948 33.6598L15.1319 34.5951C15.1041 34.7548 15.1299 34.7916 15.3124 34.8234L15.9368 34.9322L15.937 34.9324Z" fill="white" style="fill:white;fill-opacity:1;"/>
<path d="M21.7759 32.7568L22.0134 34.1198L21.7368 34.1679L21.7099 34.0139L20.9686 34.1431L21.1265 35.0498L20.8499 35.0979L20.692 34.1912L19.9534 34.3198L19.9826 34.4881L19.7174 34.5343L19.4775 33.157L20.4812 32.9821L20.3947 32.486L20.6713 32.4379L20.7578 32.934L21.7758 32.7566L21.7759 32.7568ZM20.6467 33.9318L20.5266 33.2417L19.788 33.3703L19.9081 34.0604L20.6467 33.9318ZM21.6649 33.7544L21.5447 33.0643L20.8033 33.1934L20.9235 33.8835L21.6649 33.7544Z" fill="white" style="fill:white;fill-opacity:1;"/>
<path d="M26.5195 30.2836L26.6379 30.4893L26.0735 30.8144L26.1587 30.9624L25.933 31.0925L25.8478 30.9445L25.2181 31.3071L25.3092 31.4652L25.0809 31.5966L24.9898 31.4385L24.4455 31.752L24.3271 31.5463L24.8714 31.2328L24.7646 31.0471L24.9929 30.9157L25.0997 31.1012L25.7294 30.7386L25.6225 30.5531L25.8483 30.423L25.9551 30.6085L26.5195 30.2834V30.2836ZM25.1859 31.6161C25.1845 31.834 25.163 32.0634 25.1207 32.2683L25.403 32.0857C25.4149 31.9787 25.4253 31.8691 25.4295 31.7665L25.673 31.76C25.6367 32.0682 25.576 32.3804 25.49 32.6604L25.9785 32.3022C26.0031 32.3682 26.0462 32.4602 26.0736 32.5079C25.458 32.976 25.3692 33.0538 25.3289 33.1172C25.2942 33.0803 25.2038 32.9988 25.1485 32.9606C25.2004 32.9173 25.2332 32.835 25.2661 32.7124C25.2864 32.6607 25.3215 32.5301 25.3511 32.3729C25.0957 32.55 25.0428 32.5973 25.0152 32.6365C24.9752 32.596 24.8862 32.517 24.8319 32.4749C24.8677 32.4443 24.8872 32.3796 24.9031 32.297C24.9176 32.2117 24.9583 31.9112 24.9361 31.6467L25.1859 31.6164V31.6161ZM25.3611 33.3759C25.5821 33.2086 25.91 32.9429 26.2283 32.6893L26.355 32.8803C26.0597 33.1273 25.7492 33.3827 25.5229 33.5699L25.3611 33.3759ZM26.8147 30.912C26.8147 30.912 26.854 30.9861 26.8688 31.0177C27.3378 31.9133 27.4884 32.2441 27.4624 32.3961C27.4523 32.4888 27.409 32.5471 27.3346 32.6033C27.2687 32.6513 27.1482 32.7206 27.0225 32.7864C26.9799 32.7241 26.9025 32.6419 26.8262 32.6022C26.9539 32.5454 27.0667 32.4804 27.1119 32.4544C27.1571 32.4283 27.1778 32.4064 27.1806 32.3648C27.2046 32.2674 27.0783 31.9727 26.6956 31.2443L26.0862 31.5954C26.091 31.7663 26.0811 31.929 26.053 32.0656C25.9901 32.055 25.8613 32.0457 25.79 32.0499C25.8577 31.7904 25.8444 31.4541 25.7669 31.1513L26.0166 31.0744C26.0374 31.1627 26.0531 31.2538 26.0649 31.3439L26.8148 30.912H26.8147ZM26.6773 32.3205C26.5656 32.2078 26.3428 32.0589 26.1468 31.968L26.2956 31.7855C26.4927 31.8725 26.7186 32.0096 26.8383 32.1244L26.6774 32.3207L26.6773 32.3205Z" fill="white" style="fill:white;fill-opacity:1;"/>
<path d="M30.1721 26.7885C30.2979 27.0161 30.3633 27.2571 30.3752 27.4984C30.5628 27.4334 30.7593 27.3267 30.952 27.175C30.9585 27.2526 30.9891 27.3732 31.0198 27.4446C30.8048 27.6002 30.5828 27.6968 30.3675 27.7497C30.3444 28.0144 30.2682 28.2796 30.1514 28.5297C30.0864 28.5127 29.9841 28.4945 29.9122 28.4943L30.7962 29.2418L30.6672 29.3944L30.581 29.3215L30.1639 29.9089L28.7694 28.7296L28.9003 28.5749L30.1158 29.6028L30.2041 29.4804L28.657 28.1721L28.7952 28.0086L30.3313 29.3075L30.4196 29.1851L29.2305 28.1796L29.3595 28.0271L29.9098 28.4925C30.0207 28.2717 30.0973 28.0333 30.1267 27.7967C30.0106 27.8084 29.8999 27.8095 29.7961 27.7976C29.8104 27.9196 29.814 28.0364 29.805 28.1502C29.747 28.1427 29.6112 28.1417 29.5419 28.1476C29.5754 27.8614 29.5257 27.5349 29.3883 27.267L29.5958 27.1204C29.625 27.1755 29.6483 27.233 29.6717 27.2906L29.9895 26.915L30.0147 26.8717L30.1721 26.7888V26.7885ZM29.7566 27.5667C29.8709 27.5838 30 27.5793 30.1376 27.5553C30.1342 27.416 30.1085 27.2805 30.0667 27.1506L29.7472 27.5285L29.7566 27.5667ZM31.26 28.3528L31.6637 27.8754L31.8273 28.0136L31.4237 28.491L31.6602 28.6911L31.4901 28.8922L31.2536 28.6922L30.8575 29.1607L30.6939 29.0225L31.0902 28.554L30.9575 28.4418L30.6472 28.8086L30.4947 28.6797L30.805 28.3128L30.6835 28.21L30.3602 28.5923L30.2077 28.4634L30.531 28.0811L30.4028 27.9726L30.5729 27.7715L30.7011 27.8799L31.03 27.491L31.1826 27.6199L30.8536 28.0089L30.9751 28.1117L31.2983 27.7293L31.4509 27.8583L31.1276 28.2406L31.2601 28.3528H31.26Z" fill="white" style="fill:white;fill-opacity:1;"/>
<path d="M31.9604 22.8849C31.9893 22.9234 32.0163 22.9673 32.0433 23.0113C32.3765 22.8442 32.8074 22.5128 33.1031 22.1468C33.1318 22.2192 33.204 22.3414 33.2579 22.4045C33.1431 22.5319 33.0118 22.6532 32.8756 22.7633L33.0657 22.8335L32.5963 24.1044L32.4253 24.0413C32.4583 24.2109 32.4812 24.3828 32.4957 24.561C32.4175 24.5722 32.2768 24.619 32.2069 24.6579C32.1893 24.0621 32.0317 23.4609 31.7683 23.0797L31.9604 22.8852V22.8849ZM32.8069 22.815C32.5882 22.981 32.3539 23.1228 32.1521 23.2181C32.2605 23.4341 32.3401 23.6702 32.3988 23.9201L32.8069 22.815ZM32.7069 24.6818L33.5281 22.458L33.7751 22.5493L33.346 23.7115C33.4847 23.9292 33.6088 24.1696 33.7039 24.4052L34.036 23.2719C33.8997 23.3235 33.7631 23.3841 33.6449 23.4453L33.6129 23.1896C33.9101 23.0278 34.2903 22.8844 34.5364 22.8364L34.5907 23.1157C34.5152 23.1278 34.422 23.1459 34.324 23.1776C33.9212 24.6024 33.8691 24.7685 33.8722 24.9023C33.8091 24.8976 33.6649 24.8873 33.5821 24.894C33.5916 24.8265 33.5659 24.746 33.5198 24.6366C33.4862 24.5439 33.3694 24.3003 33.2188 24.0564L32.9541 24.7732L32.7071 24.682L32.7069 24.6818Z" fill="white" style="fill:white;fill-opacity:1;"/>
</g>
<defs>
<clipPath id="clip0_56_12936">
<rect width="36" height="36" fill="white" style="fill:white;fill-opacity:1;"/>
</clipPath>
</defs>
</svg>
